<?xml version="1.0" standalone="no"?><!DOCTYPE svg PUBLIC "-//W3C//DTD SVG 1.1//EN" "http://www.w3.org/Graphics/SVG/1.1/DTD/svg11.dtd"><svg t="1709880716863" class="icon" viewBox="0 0 1537 1024" version="1.1" xmlns="http://www.w3.org/2000/svg" p-id="9391" xmlns:xlink="http://www.w3.org/1999/xlink" width="300.1953125" height="200"><path d="M1156.641337 39.562253c-11.618242 6.528435-30.368769-19.295083-34.619118-6.662623-4.248788 12.630899 6.043171 63.597629 11.352986 75.821281 2.638524 6.075938 6.369281 11.632285 8.959435 17.730068 2.590153 6.096223 3.97885 13.106801 1.689841 19.323169-3.983531 10.817791-17.1309 15.219492-23.649974 24.726603-7.591022 11.073686-4.524967 25.990473-0.975208 38.939681 3.058253 11.161065 6.31935 22.421991 12.206488 32.384719 5.888698 9.962729 14.766995 18.638182 25.860966 21.933607 14.124138 4.197297 29.220364-0.789529 42.835833-6.420772 13.091197-5.414357 26.041964-11.551148 37.176503-20.3093 11.134539-8.758151 20.424764-20.384196 24.316236-34.005906 4.883844-17.085651 0.803572-35.783126-7.648754-51.412985-8.453886-15.63142-20.958398-28.652402-33.78902-40.946269a671.269471 671.269471 0 0 0-68.784177-57.601268l5.067963-13.500005z" fill="#2F2E41" p-id="9392"></path><path d="M1329.423295 916.258979l-10.969144 102.373474-0.499306 4.681-124.093316-0.483703-0.65534-4.696604-13.138007-93.807244 149.355113-8.066923zM1139.686754 1017.930303c0 1.54473-0.015603 3.105063-0.031207 4.681l-128.821125-0.499306-0.42129-4.696604-7.942097-89.048227 133.205662-16.149451s4.290917 47.231292 4.010057 105.712588z" fill="#FFB6B6" p-id="9393"></path><path d="M1125.34885 220.912003c20.463773 25.776708 56.540241 33.246024 85.656062 17.901705 41.56104-21.90084 98.304125-47.001923 108.333948-26.943837 16.14477 32.29266 16.14477 63.630396 16.14477 63.630396l16.14633 376.358657s8.073165 151.96087-92.841397 138.548244c-100.914563-13.412626-258.342841 43.099529-258.342841 43.099529L1016.526518 666.777272l42.938815-62.862712 17.394596-180.349576-29.992728-145.092282 36.329242-16.14633s4.036583-28.256078 16.14633-28.256078c12.108187 0 15.033812-27.14356 25.681528-13.57178l0.324549 0.411928z" fill="#6C63FF" p-id="9394"></path><path d="M1344.277669 1023.422677l-26.322824-0.109224-124.093316-0.483703-16.14945-0.062413-0.9362-4.696604-24.965335-126.028129-3.900833 125.918906-0.14043 4.681-8.113734-0.031207-128.821125-0.499306-9.237174-0.04681-0.031207-4.681001-0.546116-89.001417-0.499307-82.41681-0.078017-12.467064 0.015604-0.015603 38.571441-78.188307 11.250004-22.812074 2.309293-4.681 22.531215-45.670959 203.873162-28.226431 3.120666-0.436893 55.391836-7.661237 0.405687 22.702851 0.23405 12.888354 0.826977 46.404315 0.09362 4.681 0.09362 5.351944 5.024273 280.891218 0.09362 4.696604z" fill="#2F2E41" p-id="9395"></path><path d="M1185.661977 124.637872m-84.301692 0a84.301693 84.301693 0 1 0 168.603385 0 84.301693 84.301693 0 1 0-168.603385 0Z" fill="#FFB6B6" p-id="9396"></path><path d="M1280.694083 256.665482c-19.675804 28.067277-29.739955 62.745687-28.142173 96.985643-22.308087-10.805309-37.365304-33.637667-42.489439-57.891489-5.124135-24.252262-1.2155-49.718463 7.01994-73.0985l0.249653-0.70215c12.501391-35.091898 0.884709-74.315559-29.315543-96.13214-20.370153-14.713944-38.036247-33.174248-51.597105-54.33549-7.654996-11.947473-14.161586-26.932915-8.441404-39.91801 5.269246-11.966197 18.881594-17.558432 31.409511-21.298551 28.604032-8.545946 58.997766-13.407945 88.35856-8.001389s57.624673 22.290923 71.502278 48.724531c13.876045 26.433608 10.240468 62.508516-12.282944 82.104743 7.104198 2.296811 12.130032 9.82698 11.526182 17.26821-0.602289 7.44123-6.776528 14.061725-14.156905 15.183604 4.815189-0.170076 7.658116 6.172679 5.94019 10.674241-1.716367 4.503122-6.144593 7.29924-10.369976 9.616335-6.018206 3.301665-12.688631 6.753123-12.713597 15.39737-0.010922 3.46394 1.224862 6.829579 3.245494 9.645981 4.891645 6.826459 12.793174 9.900315 20.398238 12.786932-16.087037 4.738733-28.912978 19.115644-31.793353 35.636455l1.652393-2.646326z" fill="#2F2E41" p-id="9397"></path><path d="M921.219794 224.052954c-2.301492-24.136797 8.288491-44.887671 23.648413-46.349704 15.359922-1.460472 29.67286 16.918695 31.971231 41.063294a60.676685 60.676685 0 0 1-3.708913 28.416792l8.457007 102.389078-48.133164 2.942789-3.22677-101.250035a60.681366 60.681366 0 0 1-9.007804-27.212214z" fill="#FFB6B6" p-id="9398"></path><path d="M1183.452545 272.624572s-78.634562-46.256084-94.824581-39.317281c-16.190019 6.937242-94.826142 124.890646-94.826142 124.890646l-7.229024-21.524799-55.215518 5.33634s-32.380039 150.331882 39.317281 136.455837c71.69732-13.877605 189.650723-143.394639 189.650723-143.39464l23.127261-62.446103zM453.893699 521.162278s44.399287-26.029482 56.356122-1.894245c11.956835 24.136797 122.420638 312.072921 122.420638 312.072921l-71.18241 13.858881-107.59435-324.037557z" fill="#6C63FF" p-id="9399"></path><path d="M357.054727 349.155805l2.092407 2.980237c-7.801667 4.503122-8.953193 15.868591-5.294211 24.114952 3.658982 8.246362 10.741335 14.358188 16.867204 20.981803 6.125869 6.625176 11.710302 14.829409 11.142341 23.838774-0.636616 10.129684-8.897021 18.474347-10.048547 28.563463-1.661755 14.690539 12.016128 27.578893 11.337382 42.35369-0.511789 11.28121-9.188803 20.345187-17.795602 27.661591-6.734399 5.738906-14.066406 11.504338-18.611657 18.904999-1.248267 2.037795-2.287449 4.2129-3.048891 6.540918-3.395285 10.505725-0.195042 21.953891 4.116159 32.111661 4.295598 10.15777 9.770808 20.081491 11.114255 31.031911 1.330964 10.947299-2.799238 23.58756-12.874311 28.078199 20.067448-1.719487 39.651192-8.717583 56.267183-20.097094a126.368281 126.368281 0 0 0 4.393899-3.158115c23.561034-17.740991 40.10837-43.366346 56.031572-68.341042 1.316921-2.050278 2.62136-4.11616 3.936721-6.166438 3.534155-5.557908 7.082353-11.101772 10.630552-16.65968 10.117202-15.881073 20.35923-32.000878 25.875009-49.989961 5.071084-16.589465 5.930827-34.121371 8.010751-51.347452 1.011096-8.441404 2.3405-16.851601 2.590154-25.349176 0.402566-13.067792-1.828711-26.193317-6.373962-38.459098-4.448511-12.056696-11.129858-23.295778-19.735097-32.860621-8.815884-9.797333-19.597787-17.765956-31.461002-23.503302-11.488735-5.557908-23.990126-9.009365-36.727128-9.965849a106.305514 106.305514 0 0 0-12.779131-0.179439c-16.781386 0.692788-33.37085 4.933774-49.503137 10.145288-11.863215 5.737346-22.646679 13.705969-31.461002 23.504862-8.606799 9.563283-15.286586 20.802365-19.735097 32.860622 15.467585-8.260405 33.843631-11.101772 51.043186-7.595703z" fill="#2F2E41" p-id="9400"></path><path d="M477.334588 500.773401l-79.577004-31.206668-2.01439 31.206668-69.760946 10.922334-32.767001 148.231673 29.646334 92.05967 221.567343 6.241334-7.801667-31.206668s35.887668-40.568668 14.043001-106.102671l-2.424759-16.679964a142.313328 142.313328 0 0 0-70.910911-103.465708z" fill="#6C63FF" p-id="9401"></path><path d="M433.044524 397.482451m-70.681542 0a70.681543 70.681543 0 1 0 141.363085 0 70.681543 70.681543 0 1 0-141.363085 0Z" fill="#A0616A" p-id="9402"></path><path d="M299.636019 395.209045c0.249653 8.496015 1.580618 16.909333 2.591713 25.349176 2.078364 17.226081 2.938108 34.757987 8.010752 51.347452 5.515779 17.990644 15.759367 34.108888 25.875009 49.991522 3.548198 5.556347 7.096396 11.100212 10.630551 16.658119 1.316921 2.050278 2.618239 4.11616 3.935161 6.166438 15.924763 24.974696 32.472098 50.601612 56.031572 68.341042a126.347997 126.347997 0 0 0 4.39546 3.159675c16.617551 11.377951 36.199735 18.376046 56.267182 20.095534-10.075073-4.49064-14.205275-17.1309-12.874311-28.078199 1.343447-10.95042 6.818657-20.87258 11.114255-31.031911 4.309641-10.15777 7.511445-21.605937 4.11616-32.111661a30.963256 30.963256 0 0 0-3.048892-6.540918c-4.545251-7.400661-11.877258-13.166093-18.613217-18.903439-8.606799-7.317964-17.282253-16.383501-17.794042-27.664711-0.680305-14.773237-10.117202-9.825419-11.780517-24.515959-1.149966-10.089116-14.607841-27.288671-15.244457-37.419915-0.569522-9.007805 4.96186-30.79474 11.086168-37.419916 6.125869-6.623615 0.499307-26.400841 4.158289-34.647203 3.658982-8.246362 43.586353-1.345007 35.784686-5.848129l2.090847-2.980237c17.201115-3.506069 35.577162-0.664702 51.044747 7.594142a72.034352 72.034352 0 0 1 9.631938 6.125869c7.358532-13.442272-1.373093-30.504518-13.248791-40.191067-11.629165-9.507111-25.959267-14.994804-40.178585-19.831838a580.451826 580.451826 0 0 0-7.400661-2.466887c-16.132287-5.211514-32.720191-9.4525-49.504698-10.145288a106.310195 106.310195 0 0 0-12.779131 0.179439c-12.735441 0.956484-25.236832 4.407942-36.725567 9.965849-11.863215 5.737346-22.646679 13.705969-31.461002 23.504862-8.606799 9.563283-15.286586 20.802365-19.735097 32.860622-4.545251 12.264221-6.776528 25.389745-6.375522 38.457537z" fill="#2F2E41" p-id="9403"></path><path d="M1533.436887 960.244777l-98.519451-207.009432c-7.34917-15.447301-23.155348-25.433434-40.272205-25.433434H150.249699c-4.72781 0-9.330794 0.733357-13.668521 2.137657a44.380563 44.380563 0 0 0-25.823517 21.735444L5.152736 952.989227c-7.30236 13.902571-6.818657 30.254865 1.295077 43.704939 8.09813 13.465677 22.312768 21.548204 38.025324 21.610617l957.124111 3.760404 9.237174 0.04681 128.821125 0.499306 8.113734 0.031207 29.942798 0.124827 16.14945 0.062413 124.093316 0.483703 26.322824 0.109224 148.715376 0.577323h0.18724c15.353681 0 29.412285-7.739254 37.650845-20.705624 8.269767-13.028784 9.237174-29.131425 2.605757-43.049599z" fill="#FFFFFF" p-id="9404"></path><path d="M1533.436887 960.244777l-98.519451-207.009432c-7.34917-15.447301-23.155348-25.433434-40.272205-25.433434H150.249699c-4.72781 0-9.330794 0.733357-13.668521 2.137657a44.380563 44.380563 0 0 0-25.823517 21.735444L5.152736 952.989227c-7.30236 13.902571-6.818657 30.254865 1.295077 43.704939 8.09813 13.465677 22.312768 21.548204 38.025324 21.610617l957.124111 3.760404 9.237174 0.04681 128.821125 0.499306 8.113734 0.031207 29.942798 0.124827 16.14945 0.062413 124.093316 0.483703 26.322824 0.109224 148.715376 0.577323h0.18724c15.353681 0 29.412285-7.739254 37.650845-20.705624 8.269767-13.028784 9.237174-29.131425 2.605757-43.049599z m-6.5534 40.537462c-7.380377 11.624484-19.956664 18.536761-33.703202 18.536761h-0.171636l-148.8246-0.592927-25.729898-0.09362-125.247962-0.499307-16.43031-0.062413-28.866168-0.109223-8.222957-0.031207-129.273622-0.51491-8.847091-0.031207-957.0773-3.760403c-14.058604-0.062413-26.790924-7.286757-34.030872-19.332531-7.25555-12.045774-7.692444-26.681701-1.154646-39.133162l105.603364-201.298611a39.807226 39.807226 0 0 1 35.341552-21.376568h1244.397092c15.322474 0 29.459095 8.94071 36.043702 22.765264l98.519451 206.993829c5.94487 12.482667 5.071084 26.884544-2.324897 38.540235z" fill="#3F3D56" p-id="9405"></path><path d="M442.227086 877.593917l235.610344-85.818337-117.805172-47.381084-234.830177 61.424085 117.025005 71.775336zM801.103768 748.086245l-26.525668 84.258004 310.506347 18.724-26.525668-95.180337-257.455011-7.801667z" fill="#F2F2F2" p-id="9406"></path><path d="M435.093242 762.499045c21.830625 2.164182 38.410727 15.183604 37.029832 29.076812-1.379335 13.894769-20.195395 23.39876-42.033821 21.229897a54.903451 54.903451 0 0 1-24.584613-8.246362l-92.38422-10.34189 5.776354-43.249321 90.461889 14.785719a54.908132 54.908132 0 0 1 25.734579-3.254855z" fill="#A0616A" p-id="9407"></path><path d="M342.365749 520.277569l-16.383501-8.581834s-25.745501 0.780167-42.909168 17.943834-156.03334 213.765676-156.03334 213.765676-34.327335 53.051336 51.491002 60.853002 180.998674 7.801667 180.998674 7.801667l7.801667-63.973669-129.507672-14.043001 90.689698-120.145671 13.85264-93.620004zM829.236579 499.493928a183.668405 183.668405 0 0 1-49.556188 7.552013c-1.014217 0.031207-2.028433 0.04681-3.042651 0.04681-15.540921 0-30.629345-1.91921-45.062428-5.539183l0.37448-3.69799 8.394594-80.9657 0.530513-5.180307-7.786064-23.358191h95.523611l-1.529127 22.827677-0.56172 8.316577 0.826977 2.636964 21.064501 67.125543 0.9362 2.99584c-6.522194 2.792997-13.231627 5.211514-20.112698 7.239947z" fill="#6C63FF" p-id="9408"></path><path d="M731.575312 501.553568c-22.671644-5.66401-43.704939-15.525317-62.226096-28.678928-7.63003-4.134884-15.041614-8.61304-22.141131-13.356454l3.51075-1.763177 88.205647-44.110625 1.419904 3.245494 37.978515 87.066603 1.35749 3.08946c-1.014217 0.031207-2.028433 0.04681-3.042651 0.04681-15.540921 0-30.629345-1.91921-45.062428-5.539183zM923.745973 434.584058c-0.390083 0.530513-0.79577 1.045423-1.201456 1.560334-6.584607 8.363387-13.886967 16.133847-21.782255 23.233364l-0.062413-4.16609-0.218447-15.338077s6.303747-4.602984 14.089811-5.804441c1.856797-0.296463 3.807213-0.390083 5.773234-0.171636 1.139043 0.109223 2.262483 0.32767 3.401526 0.686546z" fill="#2F2E41" p-id="9409"></path><path d="M900.762262 459.377756c-15.104027 13.621711-32.454935 24.793698-51.412985 32.876225-6.522194 2.792997-13.231627 5.211514-20.112698 7.239947l-0.078016-3.22989-1.809987-74.13144-0.265257-10.953541 87.487894 22.890091 4.649793 1.21706 3.323511 0.858184c-6.584607 8.363387-13.886967 16.133847-21.782255 23.233364z" fill="#2F2E41" p-id="9410"></path><path d="M781.750953 292.965078m-70.074573 0a70.074573 70.074573 0 1 0 140.149146 0 70.074573 70.074573 0 1 0-140.149146 0Z" fill="#A0616A" p-id="9411"></path><path d="M829.164804 496.264038c-16.133847 4.86824-33.188291 7.53641-50.835662 7.692443l1.35749 3.08946c17.179271-0.249653 33.812425-2.886617 49.556189-7.552013l-0.078017-3.22989z m-178.439728-38.509029c-35.965685-33.235101-58.793362-80.481997-59.713959-132.971612-36.714645 42.503482-0.23405 97.052737 56.203209 134.734789 7.099517 4.743414 14.511101 9.22157 22.141131 13.356454-6.537797-4.63419-12.763527-9.68967-18.630381-15.119631z m271.217152-251.822207c-34.046475-42.753135-86.520487-70.1994-145.298246-70.1994-102.373474 0-185.679675 83.290597-185.679675 185.679675 0 1.12344 0.015603 2.24688 0.04681 3.37032 0.967407-1.139043 1.997227-2.262483 3.073857-3.37032 51.491002-53.051336 81.9019-182.559008 182.559008-182.559008 58.840172 0 111.267375 27.976778 144.674113 71.338443 23.748274 30.800981 37.884895 69.388026 37.884895 111.220565 0 6.069697-0.296463 12.076981-0.889391 17.990644-0.37448 3.93204-0.88939 7.832874-1.529126 11.686897-4.649794 28.320051-15.837384 54.486842-31.955628 76.84642-1.45111 2.028433-2.94903 4.010057-4.478157 5.960474-0.37448 0.4681-0.733357 0.9362-1.12344 1.388696-5.679614 7.099517-11.874137 13.762141-18.521158 19.925458-15.244457 14.167827-32.907431 25.745501-52.286772 34.046475-6.241334 2.699377-12.669907 5.039877-19.254514 7.005897-16.133847 4.86824-33.188291 7.53641-50.835662 7.692443-0.56172 0.015603-1.12344 0.015603-1.68516 0.015604-14.136621 0-29.287458-2.168863-44.687949-6.116507-21.033294-5.38315-42.550292-14.058604-62.600576-24.980938 18.521157 13.153611 39.554452 23.014918 62.226096 28.678928 14.433084 3.619973 29.521508 5.539184 45.062429 5.539183 1.014217 0 2.028433-0.015603 3.04265-0.04681 17.179271-0.249653 33.812425-2.886617 49.556189-7.552013 6.88107-2.028433 13.590504-4.44695 20.112697-7.239947a185.364487 185.364487 0 0 0 51.412986-32.876225c7.895287-7.099517 15.197647-14.869977 21.782254-23.233364 0.405687-0.51491 0.811373-1.02982 1.201457-1.560334 0.530513-0.686547 1.061027-1.388697 1.575936-2.090846 17.647371-23.514224 29.817971-51.350572 34.655005-81.605437 0.624133-3.88523 1.12344-7.81727 1.49792-11.796121 0.56172-5.820044 0.84258-11.718104 0.84258-17.678577 0-43.611319-15.104027-83.758697-40.381428-115.480275z" fill="#E6E6E6" p-id="9412"></path><path d="M718.989663 330.243004c-12.609054-11.895982-21.401533-27.664711-12.602813-61.275853 0.65534-2.502775-1.101595-5.188109-2.796118-7.141646-1.696082-1.955098-4.893206-2.861651-6.906035-1.237345 1.433946-4.219142 21.069182-19.291962 22.501568-23.511103-1.672677 2.220354-14.440886 6.979371-15.462904 4.393899s-0.127947-5.489253 0.772365-8.119975l5.359745-15.681351c1.346568-3.946083 6.665744 0.767684 9.330794-2.437241 4.776181-5.742027-0.674064-11.793 6.618934-13.403264 23.86686-5.267686 49.169226-9.973651 72.35578-2.240639 10.128124 3.376561 19.338772 8.98752 28.45112 14.55167l16.672162 10.182735c9.564844 5.840328 19.953544 12.769769 22.573343 23.665577l-17.506941-6.256937c3.900833 8.304094 7.832874 16.711171 9.617896 25.708053 1.783461 8.998443-3.04109 42.881082-7.714289 50.773249-4.103677 6.935682-7.012138-11.688457-8.363387-3.7448 1.547851-15.606455-5.47677-31.794914-17.932912-41.32699-2.554266-1.955098-5.467408-3.835299-6.603331-6.845183-1.266991-3.354717 0.003121-7.391299-1.727289-10.533811-2.150139-3.908635-7.7689-4.279995-11.956834-2.746187-4.187935 1.532247-7.848477 4.415744-12.189325 5.448685-11.502778 2.738385-21.967934-8.137139-33.765615-8.956314-11.237521-0.778606-21.289189 8.018553-25.962387 18.268383-4.673199 10.24983-17.600561 8.031036-18.808259 19.231109-1.207698 11.200073 16.439673 33.364609 9.362 42.129002l-3.317268 1.106277z" fill="#2F2E41" p-id="9413"></path><path d="M710.142572 434.724488l-5.227117-4.07247-1.21706-0.9362c-1.17025-0.920597-2.71498-1.232663-4.16609-0.873787l-6.116507 1.529127c-0.639737 0.156033-1.326283-0.031207-1.794383-0.499306l-6.865467-6.865467c-0.4681-0.4681-0.65534-1.154647-0.499307-1.794384l1.529127-6.116507c0.37448-1.45111 0.04681-2.980237-0.873787-4.16609l-5.00867-6.444177c-0.124827-0.156033-0.265257-0.312067-0.405687-0.452497a4.858878 4.858878 0 0 0-6.88107 0l-2.886617 2.886617c-2.075243 2.05964-2.980237 5.164704-1.96602 8.035717 2.590153 7.364774 6.803054 14.058604 12.342237 19.566581 1.96602 1.96602 4.07247 3.776007 6.303747 5.398754 4.056867 2.933427 8.51942 5.273927 13.262834 6.943483 2.886617 1.014217 5.976077 0.109223 8.035717-1.950417l2.886617-2.90222c2.075243-2.05964 1.856797-5.47677-0.452497-7.286757z m-1.653953 5.195911l-2.886617 2.886616c-1.35749 1.341887-3.261097 1.841193-4.946257 1.248267-3.97885-1.388697-7.739254-3.292303-11.218797-5.66401-2.590153-1.73197-5.00867-3.7448-7.224344-5.976077a49.123976 49.123976 0 0 1-11.640087-18.443141c-0.592927-1.68516-0.09362-3.588767 1.248267-4.946257l2.90222-2.886616c0.04681-0.062413 0.109223-0.109223 0.171637-0.156034a1.888003 1.888003 0 0 1 2.652567 0.32767l5.00867 6.444177c0.358877 0.452497 0.483703 1.061027 0.343273 1.622747l-1.529127 6.116507c-0.42129 1.653953 0.078017 3.41713 1.279474 4.618587l6.865467 6.865467c1.201457 1.21706 2.964633 1.700763 4.618587 1.279473l6.116507-1.529127c0.56172-0.14043 1.17025-0.015603 1.622746 0.343274l0.078017 0.062413 6.36616 4.946257c0.062413 0.04681 0.124827 0.109223 0.171637 0.156033 0.74896 0.74896 0.74896 1.934813 0 2.683774z" fill="#CCCCCC" p-id="9414"></path><path d="M771.054868 420.622195c0.770805 0 1.396498 0.624133 1.396498 1.396499v2.792996a11.168866 11.168866 0 0 0 22.337733 0v-2.792996a1.396498 1.396498 0 1 1 2.792997 0v2.792996a13.961863 13.961863 0 0 1-12.565365 13.890088v5.654648h8.375869a1.396498 1.396498 0 1 1 0 2.792997H773.847864a1.396498 1.396498 0 1 1 0-2.792997h8.37743v-5.654648a13.961863 13.961863 0 0 1-12.565365-13.891648v-2.792997c0-0.769244 0.624133-1.394938 1.396499-1.394938z" fill="#CCCCCC" p-id="9415"></path><path d="M783.618672 402.472397c-4.618587 0-8.37899 3.7448-8.37899 8.37899v13.964984c0 4.618587 3.760403 8.363387 8.37899 8.363387 4.63419 0 8.37899-3.7448 8.37899-8.363387v-13.964984c0-4.63419-3.7448-8.37899-8.37899-8.37899z m5.585994 22.343974c0 3.073857-2.496533 5.585994-5.585994 5.585994s-5.585994-2.512137-5.585993-5.585994v-13.964984c0-3.08946 2.496533-5.585994 5.585993-5.585993s5.585994 2.496533 5.585994 5.585993v13.964984z" fill="#CCCCCC" p-id="9416"></path><path d="M880.250119 403.018514c-4.384537-1.482317-9.143554 0.858183-10.62587 5.24272l2.356103 2.356103c0.156033-2.964633 2.62136-5.28953 5.601597-5.273927a5.585994 5.585994 0 0 1 5.554787 5.601597v10.828714l2.792997 2.792997v-13.621711c0-3.573163-2.29369-6.771847-5.679614-7.926493z m7.083914 41.442455h-8.37899v-5.66401c2.449723-0.23405 4.790224-1.12344 6.78745-2.574551l-2.01283-2.01283c-1.763177 1.185853-3.88523 1.8724-6.17892 1.8724-6.163317 0-11.171987-5.00867-11.171987-11.171987v-2.792996c0-0.249653-0.062413-0.499307-0.202844-0.702151a1.363731 1.363731 0 0 0-1.8724-0.499306c-0.42129 0.23405-0.717753 0.686547-0.717753 1.201457v2.792996c0 7.16193 5.445564 13.169214 12.576287 13.886968v5.66401h-8.37899a1.394938 1.394938 0 1 0 0 2.792997h19.550977c0.764563 0 1.388697-0.624133 1.388697-1.4043 0-0.764563-0.624133-1.388697-1.388697-1.388697z m2.792997-23.732671c-0.780167 0-1.4043 0.624133-1.4043 1.388697v2.792996c0 0.74896-0.078017 1.49792-0.218447 2.231277l0.14043 0.14043 2.122054 2.137657c0.156033-0.483703 0.296463-0.967407 0.405686-1.466714 0.23405-0.98301 0.343273-1.997227 0.343274-3.04265v-2.792996c0-0.764563-0.624133-1.388697-1.388697-1.388697z" fill="#CCCCCC" p-id="9417"></path><path d="M883.308373 425.893001l-21.516998-21.516997-1.981623 1.981623 18.131074 18.131074 15.384887 15.369284 1.96602-1.981623-11.98336-11.983361z m-3.69799 4.212901c-2.85541 1.139043-6.100904-0.265257-7.239947-3.136271a5.507977 5.507977 0 0 1-0.405687-2.05964v-2.449723l-2.792997-2.792997v5.24272a8.389913 8.389913 0 0 0 12.529478 7.286757l-2.090847-2.090846z" fill="#CCCCCC" p-id="9418"></path><path d="M1255.986204 730.889811c-18.522718 13.754339-40.634202 15.345879-49.384552 3.55756-8.75347-11.789879-0.830097-32.493943 17.700422-46.249843a57.738577 57.738577 0 0 1 24.965334-10.969143l79.218127-57.286081 26.091895 37.746025-80.864279 52.467771a57.741698 57.741698 0 0 1-17.726947 20.733711z" fill="#FFB6B6" p-id="9419"></path><path d="M1305.893468 264.345443s63.901894 2.017511 76.011641 46.419919c12.108187 44.403968 36.329243 139.04599 32.29266 270.452588 0 0 20.182913 84.769793-32.29266 80.73165l-72.658485 32.29422-48.44055-64.58532 40.365825-48.44055 4.721569-316.872507z" fill="#6C63FF" p-id="9420"></path></svg>