<?xml version="1.0" standalone="no"?><!DOCTYPE svg PUBLIC "-//W3C//DTD SVG 1.1//EN" "http://www.w3.org/Graphics/SVG/1.1/DTD/svg11.dtd"><svg t="1709881764225" class="icon" viewBox="0 0 1024 1024" version="1.1" xmlns="http://www.w3.org/2000/svg" p-id="87338" xmlns:xlink="http://www.w3.org/1999/xlink" width="200" height="200"><path d="M147.557705 642.130754h172.936297v380.536037H147.557705c-11.23705 0-20.379057-9.142007-20.379057-20.379057V662.509811c-0.095229-11.332279 9.046778-20.379057 20.379057-20.379057zM732.646145 642.130754h172.936297c11.23705 0 20.379057 9.142007 20.379057 20.379057v339.777923c0 11.23705-9.142007 20.379057-20.379057 20.379057H732.646145V642.130754z" fill="#F07FFD" p-id="87339"></path><path d="M341.92058 498.715521l203.695341-150.462196 204.742863 150.747884c2.666419 1.999814 1.333209 6.28513-2.095044 6.28513H344.110853c-3.618711 0.095229-5.04715-4.475774-2.190273-6.570818z" fill="#CE7B02" p-id="87340"></path><path d="M536.95006 367.013485c-7.904027 0-14.284386-6.380359-14.284385-14.284386V251.881335c0-7.904027 6.380359-14.284386 14.284385-14.284385s14.284386 6.380359 14.284386 14.284385v100.847764c0 7.904027-6.380359 14.284386-14.284386 14.284386z" fill="#FF0000" p-id="87341"></path><path d="M519.904027 285.402027h123.417093c12.760718 0 23.045476-10.284758 23.045475-23.045475v-33.996838c0-12.760718-10.284758-23.045476-23.045475-23.045476H542.949502c-12.760718 0-23.045476 10.284758-23.045475 23.045476V285.402027z" fill="#FF0000" p-id="87342"></path><path d="M326.874361 548.806101v461.195201c0 7.713568 6.28513 13.998698 13.998698 13.998698h383.583372c7.713568 0 13.998698-6.28513 13.998698-13.998698V548.806101H326.874361z" fill="#46A3FB" p-id="87343"></path><path d="M526.474844 709.648284c-36.758486 0-66.660467-29.901981-66.660467-66.660467s29.901981-66.660467 66.660467-66.660466 66.660467 29.901981 66.660467 66.660466-29.901981 66.660467-66.660467 66.660467z" fill="#5ECEF4" p-id="87344"></path><path d="M369.44183 231.31182a12.284572 2.285502 90 1 0 4.571004 0 12.284572 2.285502 90 1 0-4.571004 0Z" fill="#E61F19" p-id="87345"></path><path d="M380.300621 229.807225a12.284572 2.285502 60 1 0 3.958605-2.285501 12.284572 2.285502 60 1 0-3.958605 2.285501Z" fill="#E61F19" p-id="87346"></path><path d="M389.053392 223.061315a12.284572 2.285502 30 1 0 2.285502-3.958605 12.284572 2.285502 30 1 0-2.285502 3.958605Z" fill="#E61F19" p-id="87347"></path><path d="M380.964568 210.456617a12.284572 2.285502 0 1 0 24.569144 0 12.284572 2.285502 0 1 0-24.569144 0Z" fill="#E61F19" p-id="87348"></path><path d="M379.962175 206.037358a2.285502 12.284572 60 1 0 21.277503-12.284572 2.285502 12.284572 60 1 0-21.277503 12.284572Z" fill="#E61F19" p-id="87349"></path><path d="M376.872132 202.637091a2.285502 12.284572 30 1 0 12.284572-21.277502 2.285502 12.284572 30 1 0-12.284572 21.277502Z" fill="#E61F19" p-id="87350"></path><path d="M370.203664 188.934809a12.284572 2.285502 90 1 0 4.571004 0 12.284572 2.285502 90 1 0-4.571004 0Z" fill="#E61F19" p-id="87351"></path><path d="M359.852094 192.716344a12.284572 2.285502 60 1 0 3.958605-2.285502 12.284572 2.285502 60 1 0-3.958605 2.285502Z" fill="#E61F19" p-id="87352"></path><path d="M352.787995 201.159367a12.284572 2.285502 30 1 0 2.285502-3.958605 12.284572 2.285502 30 1 0-2.285502 3.958605Z" fill="#E61F19" p-id="87353"></path><path d="M338.587557 209.694783a12.284572 2.285502 0 1 0 24.569143 0 12.284572 2.285502 0 1 0-24.569143 0Z" fill="#E61F19" p-id="87354"></path><path d="M342.871642 226.485281a2.285502 12.284572 60 1 0 21.277502-12.284572 2.285502 12.284572 60 1 0-21.277502 12.284572Z" fill="#E61F19" p-id="87355"></path><path d="M354.970185 238.902488a2.285502 12.284572 30 1 0 12.284571-21.277502 2.285502 12.284572 30 1 0-12.284571 21.277502Z" fill="#E61F19" p-id="87356"></path><path d="M483.812145 14.855761m-14.855761 0a14.855761 14.855761 0 1 0 29.711523 0 14.855761 14.855761 0 1 0-29.711523 0Z" fill="#2C65AF" p-id="87357"></path><path d="M449.815307 158.461453c4.666233-2.380731 7.046964-7.142193 5.332838-10.665675l-34.663443-67.136613c-1.809356-3.428253-7.046964-4.285316-11.713196-1.809356-4.666233 2.380731-7.046964 7.142193-5.332838 10.665675l34.663443 67.136613c1.714126 3.428253 6.951734 4.285316 11.713196 1.809356z" fill="#F9E63A" p-id="87358"></path><path d="M469.051614 98.086116c-2.380731-4.666233-7.142193-7.046964-10.665675-5.332838l-67.136613 34.663443c-3.428253 1.809356-4.285316 7.046964-1.809356 11.713196 2.380731 4.666233 7.142193 7.046964 10.665675 5.332838L467.242258 109.799312c3.428253-1.714126 4.190086-6.951734 1.809356-11.713196z" fill="#F9E63A" p-id="87359"></path><path d="M695.506742 105.704455c2.285502 0 4.190086 1.904585 4.190087 4.190086V155.509346c0 2.285502-1.904585 4.190086-4.190087 4.190087s-4.190086-1.904585-4.190086-4.190087V109.894541c0-2.285502 1.904585-4.190086 4.190086-4.190086z" fill="#EF8218" p-id="87360"></path><path d="M672.746954 128.559472h45.519576c2.285502 0 4.190086 1.904585 4.190087 4.190086s-1.904585 4.190086-4.190087 4.190087h-45.519576c-2.285502 0-4.190086-1.904585-4.190086-4.190087s1.904585-4.190086 4.190086-4.190086z" fill="#EF8218" p-id="87361"></path><path d="M571.232586 53.518832c20.855203 0 37.806008 16.760346 37.806008 37.425091s-16.950804 37.425091-37.806008 37.42509c-20.855203 0-37.806008-16.760346-37.806007-37.42509s16.950804-37.425091 37.806007-37.425091z m0 64.946341c15.331907 0 27.806938-12.379801 27.806938-27.52125s-12.47503-27.52125-27.806938-27.52125-27.806938 12.379801-27.806937 27.52125 12.47503 27.52125 27.806937 27.52125z" fill="#E62A52" p-id="87362"></path><path d="M162.889612 738.693202c-7.237422 0-13.141635 5.808984-13.141635 13.046406v52.376081c0 7.237422 5.904213 13.046406 13.141635 13.046405 7.237422 0 13.046406-5.808984 13.046406-13.046405v-52.376081c0-7.237422-5.808984-13.046406-13.046406-13.046406z m0 0M226.88366 738.693202c-7.237422 0-13.141635 5.808984-13.141635 13.046406v52.376081c0 7.237422 5.904213 13.046406 13.141635 13.046405 7.237422 0 13.046406-5.808984 13.046406-13.046405v-52.376081c0-7.237422-5.904213-13.046406-13.046406-13.046406z m0 0M828.827676 817.162094c7.237422 0 13.141635-5.808984 13.141635-13.046405v-52.376081c0-7.237422-5.808984-13.046406-13.141635-13.046406-7.237422 0-13.046406 5.808984-13.046406 13.046406v52.376081c0 7.237422 5.808984 13.046406 13.046406 13.046405z m0 0" fill="" p-id="87363"></path><path d="M764.833628 817.162094c7.237422 0 13.141635-5.808984 13.141635-13.046405v-52.376081c0-7.237422-5.808984-13.046406-13.141635-13.046406-7.237422 0-13.046406 5.808984-13.046406 13.046406v52.376081c0 7.237422 5.808984 13.046406 13.046406 13.046405z m0 0" fill="" p-id="87364"></path><path d="M495.811029 712.505161c-44.567284 0-80.944853-36.28234-80.944852-80.944852 0-44.567284 36.28234-80.944853 80.944852-80.944853s80.944853 36.28234 80.944853 80.944853-36.28234 80.944853-80.944853 80.944852z m0-133.225704c-28.854459 0-52.376081 23.521622-52.376081 52.376081s23.521622 52.376081 52.376081 52.376081 52.376081-23.521622 52.376082-52.376081-23.521622-52.376081-52.376082-52.376081z" fill="" p-id="87365"></path><path d="M304.685948 1009.620385H117.465266c-19.141077 0-34.663443-15.522366-34.663443-34.663443v-188.553892c0-7.904027 6.380359-14.284386 14.284385-14.284385s14.284386 6.380359 14.284386 14.284385v188.553892c0 3.333023 2.761648 6.094671 6.094672 6.094672h158.651911V629.084349H117.465266c-3.333023 0-6.094671 2.761648-6.094672 6.094671v113.132335c0 7.904027-6.380359 14.284386-14.284386 14.284386s-14.284386-6.380359-14.284385-14.284386V635.17902c0-19.141077 15.522366-34.663443 34.663443-34.663443h187.220682v409.104808z" fill="" p-id="87366"></path><path d="M895.86906 866.205152c-0.761834 0-1.428439-0.666605-1.428439-1.428439V768.023807c0-0.761834 0.666605-1.428439 1.428439-1.428438s1.428439 0.666605 1.428438 1.428438v96.752906c0 0.761834-0.571375 1.428439-1.428438 1.428439z" fill="" p-id="87367"></path><path d="M875.490003 1009.620385H688.364549V600.515577h187.220683c19.141077 0 34.663443 15.522366 34.663443 34.663443v86.658607c0 7.904027-6.380359 14.284386-14.284386 14.284385s-14.284386-6.380359-14.284386-14.284385v-86.658607c0-3.333023-2.761648-6.094671-6.094671-6.094671H716.933321v351.967265h158.651911c3.333023 0 6.094671-2.761648 6.094671-6.094672v-74.183576c0-7.904027 6.380359-14.284386 14.284386-14.284386s14.284386 6.380359 14.284386 14.284386v74.183576c-0.095229 19.141077-15.617595 34.663443-34.758672 34.663443z" fill="" p-id="87368"></path><path d="M687.888403 1009.620385H304.40026c-15.617595 0-28.283084-12.665489-28.283083-28.283084V505.857714h440.05431v475.479587c0 15.617595-12.665489 28.283084-28.283084 28.283084z m-383.202455-28.568771h382.916768v-446.625128H304.685948v446.625128z" fill="" p-id="87369"></path><path d="M629.322422 1009.620385H365.156514V767.357203c0-16.188971 13.141635-29.330605 29.330606-29.330606h205.409467c16.188971 0 29.330605 13.141635 29.330605 29.330606v242.263182z m-235.597136-28.568771h207.028364V767.357203c0-0.380917-0.380917-0.761834-0.761834-0.761834H394.582349c-0.380917 0-0.761834 0.380917-0.761834 0.761834v213.694411z" fill="" p-id="87370"></path><path d="M609.800428 952.292384H385.535571c-7.904027 0-14.284386-6.380359-14.284385-14.284386s6.380359-14.284386 14.284385-14.284386h224.264857c7.904027 0 14.284386 6.380359 14.284386 14.284386s-6.475588 14.284386-14.284386 14.284386z" fill="" p-id="87371"></path><path d="M496.096717 952.292384c-7.904027 0-14.284386-6.380359-14.284386-14.284386V768.023807c0-7.904027 6.380359-14.284386 14.284386-14.284385s14.284386 6.380359 14.284386 14.284385v169.888962c0 7.904027-6.380359 14.379615-14.284386 14.379615z" fill="" p-id="87372"></path><path d="M698.458849 519.665954H294.305961c-7.808798 0-14.665303-4.95192-17.046034-12.379801-2.47596-7.427881 0.095229-15.427137 6.380359-20.09337L495.811029 330.540686l213.218265 157.033014c6.1899 4.571003 8.76109 12.570259 6.380359 19.902911s-9.237236 12.189343-16.950804 12.189343zM300.591091 510.238259z m-8.475402-11.522738z m34.472984-7.618339h339.111318L495.811029 366.061192 326.588673 491.097182z" fill="" p-id="87373"></path><path d="M492.00186 358.82377c-7.904027 0-14.284386-6.380359-14.284386-14.284386V219.598624c0-20.569515 16.760346-37.329861 37.329862-37.329862h100.371617c20.569515 0 37.329861 16.760346 37.329861 37.329862V253.595462c0 20.569515-16.760346 37.329861-37.329861 37.329861H506.286246v53.709291c0 7.808798-6.380359 14.189157-14.284386 14.189156z m14.284386-96.562448h109.132707c4.856691 0 8.76109-3.904399 8.76109-8.76109v-33.996838c0-4.856691-3.904399-8.76109-8.76109-8.76109H515.047336c-4.856691 0-8.76109 3.904399-8.76109 8.76109v42.757928z" fill="" p-id="87374"></path><path d="M278.307449 707.64847H104.704548c-7.904027 0-14.284386-6.380359-14.284386-14.284386s6.380359-14.284386 14.284386-14.284385h173.602901c7.904027 0 14.284386 6.380359 14.284386 14.284385s-6.380359 14.284386-14.284386 14.284386z" fill="" p-id="87375"></path><path d="M886.060448 707.64847H712.457547c-7.904027 0-14.284386-6.380359-14.284386-14.284386s6.380359-14.284386 14.284386-14.284385h173.602901c7.904027 0 14.284386 6.380359 14.284386 14.284385s-6.380359 14.284386-14.284386 14.284386z" fill="" p-id="87376"></path></svg>