<?xml version="1.0" standalone="no"?><!DOCTYPE svg PUBLIC "-//W3C//DTD SVG 1.1//EN" "http://www.w3.org/Graphics/SVG/1.1/DTD/svg11.dtd"><svg t="1709881425092" class="icon" viewBox="0 0 1355 1024" version="1.1" xmlns="http://www.w3.org/2000/svg" p-id="71571" xmlns:xlink="http://www.w3.org/1999/xlink" width="264.6484375" height="200"><path d="M545.641412 828.536471a121.735529 121.735529 0 0 0-12.197647 53.007058 122.608941 122.608941 0 1 0 245.248 0h-109.537883a170.586353 170.586353 0 0 1-123.51247-53.007058" fill="#F83CB6" p-id="71572"></path><path d="M656.052706 758.904471a122.548706 122.548706 0 0 0-110.441412 69.601882 170.556235 170.556235 0 0 0 123.512471 53.007059h109.568a122.639059 122.639059 0 0 0-122.639059-122.578824" fill="#7E42B9" p-id="71573"></path><path d="M961.807059 881.543529H854.136471a122.639059 122.639059 0 1 0 245.278117 0c0-19.576471-4.698353-37.978353-12.860235-54.39247a170.465882 170.465882 0 0 1-124.747294 54.39247" fill="#F83CB6" p-id="71574"></path><path d="M976.775529 758.904471a122.639059 122.639059 0 0 0-122.639058 122.639058h107.670588c47.947294 0 92.882824-20.178824 124.747294-54.362353a122.488471 122.488471 0 0 0-109.778824-68.276705" fill="#7E42B9" p-id="71575"></path><path d="M1275.211294 268.408471h-208.263529v269.281882a73.125647 73.125647 0 0 1-73.155765 73.185882H638.012235a73.125647 73.125647 0 0 1-73.155764-73.185882v-269.251765h-184.500706L295.002353 108.965647H65.054118a65.054118 65.054118 0 1 0 0 130.108235h153.690353l301.628235 555.248942c7.017412 12.559059 15.600941 23.973647 25.268706 34.153411a122.488471 122.488471 0 0 1 233.050353 53.007059h75.474823a122.488471 122.488471 0 1 1 232.387765-54.362353c9.155765-9.818353 17.287529-20.781176 24.033882-32.798117l231.062589-412.611765c28.400941-50.748235-8.252235-113.332706-66.43953-113.332706" fill="#A267F8" p-id="71576"></path><path d="M1066.947765 73.155765A73.125647 73.125647 0 0 0 993.792 0H638.012235a73.155765 73.155765 0 0 0-73.155764 73.155765v195.252706h502.091294V73.155765z" fill="#F9D11F" p-id="71577"></path><path d="M638.012235 610.846118h355.779765a73.125647 73.125647 0 0 0 73.155765-73.125647V268.408471H564.856471v269.251764a73.155765 73.155765 0 0 0 73.155764 73.185883" fill="#7E42B9" p-id="71578"></path></svg>