<svg xmlns="http://www.w3.org/2000/svg" xmlns:xlink="http://www.w3.org/1999/xlink" t="1709175645501" class="icon" viewBox="0 0 1024 1024" version="1.1" p-id="6731" width="200" height="200"><path d="M36.02963 199.74321h587.219753c13.906173 60.681481 67.634568 105.560494 132.108642 105.560494s118.202469-45.511111 132.108642-105.560494h100.503703c16.434568 0 29.708642-13.274074 29.708642-29.708642s-13.274074-29.708642-29.708642-29.708642h-100.503703c-13.906173-60.681481-67.634568-105.560494-132.108642-105.560494s-118.202469 45.511111-132.108642 105.560494H36.02963c-16.434568 0-29.708642 13.274074-29.708642 29.708642s13.274074 29.708642 29.708642 29.708642z m719.328395-105.560494c41.718519 0 75.851852 34.133333 75.851852 75.851852s-34.133333 75.851852-75.851852 75.851852-75.851852-34.133333-75.851852-75.851852 34.133333-75.851852 75.851852-75.851852zM987.97037 482.291358H400.750617c-13.906173-60.681481-67.634568-105.560494-132.108642-105.560494s-118.202469 45.511111-132.108642 105.560494H36.02963C19.595062 482.291358 6.320988 495.565432 6.320988 512s13.274074 29.708642 29.708642 29.708642h100.503703c13.906173 60.681481 67.634568 105.560494 132.108642 105.560494s118.202469-45.511111 132.108642-105.560494h587.219753c16.434568 0 29.708642-13.274074 29.708642-29.708642s-13.274074-29.708642-29.708642-29.708642zM268.641975 587.851852c-41.718519 0-75.851852-34.133333-75.851852-75.851852s34.133333-75.851852 75.851852-75.851852 75.851852 34.133333 75.851852 75.851852-34.133333 75.851852-75.851852 75.851852zM987.97037 824.25679h-100.503703c-13.906173-60.681481-67.634568-105.560494-132.108642-105.560494s-118.202469 45.511111-132.108642 105.560494H36.02963c-16.434568 0-29.708642 13.274074-29.708642 29.708642s13.274074 29.708642 29.708642 29.708642h587.219753c13.906173 60.681481 67.634568 105.560494 132.108642 105.560494s118.202469-45.511111 132.108642-105.560494h100.503703c16.434568 0 29.708642-13.274074 29.708642-29.708642s-13.274074-29.708642-29.708642-29.708642z m-232.612345 105.560494c-41.718519 0-75.851852-34.133333-75.851852-75.851852s34.133333-75.851852 75.851852-75.851852 75.851852 34.133333 75.851852 75.851852-34.133333 75.851852-75.851852 75.851852z" fill="#8a8a8a" p-id="6732"/></svg>