<?xml version="1.0" standalone="no"?><!DOCTYPE svg PUBLIC "-//W3C//DTD SVG 1.1//EN" "http://www.w3.org/Graphics/SVG/1.1/DTD/svg11.dtd"><svg t="1709881629446" class="icon" viewBox="0 0 1024 1024" version="1.1" xmlns="http://www.w3.org/2000/svg" p-id="76820" xmlns:xlink="http://www.w3.org/1999/xlink" width="200" height="200"><path d="M80 240h864v736H80z" fill="#FFE6C3" p-id="76821"></path><path d="M176 560h288v416H176z" fill="#B19075" p-id="76822"></path><path d="M560 560v240h288V560H560z m-320 144h160v-64H240v64z" fill="#CEEDFA" p-id="76823"></path><path d="M416 624H224v96h192v-96z m-32 64h-128v-32h128v32z m544-464H96a32 32 0 0 0-32 32v704a32 32 0 0 0 32 32h832a32 32 0 0 0 32-32V256a32 32 0 0 0-32-32zM448 960H192V576h256v384z m480 0H480V576a32 32 0 0 0-32-32H192a32 32 0 0 0-32 32v384H96V256h832v704z m-352-144h256a32 32 0 0 0 32-32V576a32 32 0 0 0-32-32H576a32 32 0 0 0-32 32v208a32 32 0 0 0 32 32z m0-240h256v208H576V576z m199.776 35.84a14.096 14.096 0 0 0-19.936 19.936l19.936 19.92a14.048 14.048 0 0 0 19.92 0 14.048 14.048 0 0 0 0-19.92l-19.92-19.936z m-62.4 14.912a15.984 15.984 0 1 0-22.624 22.624l67.872 67.872a15.984 15.984 0 1 0 22.624-22.624l-67.872-67.872z" fill="#2B3139" p-id="76824"></path><path d="M32 176v192a96 96 0 0 0 192 0V176l80-128h-144l-128 128z m832-128h-144l80 128v192a96 96 0 0 0 192 0V176l-128-128zM448 48l-32 128v192a96 96 0 0 0 192 0V176l-32-128h-128z" fill="#FFFFFF" p-id="76825"></path><path d="M224 176v192a96 96 0 0 0 192 0V176l32-128h-144l-80 128z m496-128h-144l32 128v192a96 96 0 0 0 192 0V176l-80-128z" fill="#F37474" p-id="76826"></path><path d="M1003.376 163.2L876.8 36.624A16.448 16.448 0 0 0 863.584 32h-142.336a15.248 15.248 0 0 0-4.352 0h-409.76a15.248 15.248 0 0 0-4.352 0h-142.336a16.48 16.48 0 0 0-13.248 4.624L20.624 163.2c-5.2 5.2-6.08 12.896-2.992 19.152-0.96 3.056-1.632 6.272-1.632 9.648v176a112 112 0 0 0 112 112 111.84 111.84 0 0 0 96-54.528C243.584 458.096 279.184 480 320 480s76.416-21.904 96-54.528C435.584 458.096 471.184 480 512 480s76.416-21.904 96-54.528C627.584 458.096 663.184 480 704 480s76.416-21.904 96-54.528A111.84 111.84 0 0 0 896 480a112 112 0 0 0 112-112V192c0-3.376-0.672-6.592-1.648-9.648a16.528 16.528 0 0 0-2.976-19.152z m-194.56-3.2l-60.208-96h108.272l96 96h-144.064z m-188.16 0l-24.688-96h115.536l60.208 96h-151.056z m-368.352 0l60.192-96h115.536l-24.704 96h-151.024zM71.12 160l96-96h108.272l-60.208 96H71.12z m389.552-96h102.672l24.688 96h-152.064l24.704-96zM208 368c0 44.192-35.808 80-80 80s-80-35.808-80-80V192h160v176z m192 0c0 44.192-35.808 80-80 80s-80-35.808-80-80V192h160v176z m192 0c0 44.192-35.808 80-80 80s-80-35.808-80-80V192h160v176z m192 0c0 44.192-35.808 80-80 80s-80-35.808-80-80V192h160v176z m192-144v144c0 44.192-35.808 80-80 80s-80-35.808-80-80V192h160v32z" fill="#2B3139" p-id="76827"></path></svg>