<?xml version="1.0" standalone="no"?><!DOCTYPE svg PUBLIC "-//W3C//DTD SVG 1.1//EN" "http://www.w3.org/Graphics/SVG/1.1/DTD/svg11.dtd"><svg t="1709881010058" class="icon" viewBox="0 0 1024 1024" version="1.1" xmlns="http://www.w3.org/2000/svg" p-id="27545" xmlns:xlink="http://www.w3.org/1999/xlink" width="200" height="200"><path d="M477.866667 930.133333l-70.4-275.2 10.666666-4.266666 70.4 277.333333zM213.333333 930.133333l-10.666666-2.133333 42.666666-296.533333 10.666667 2.133333zM535.466667 930.133333l-72.533334-275.2 10.666667-4.266666 72.533333 277.333333zM270.933333 930.133333l-10.666666-2.133333 40.533333-296.533333 10.666667 2.133333z" fill="#ADB3BA" p-id="27546"></path><path d="M200.533333 622.933333c0 2.133333 38.4 32 104.533334 44.8 66.133333 12.8 230.4-12.8 260.266666-34.133333 29.866667-21.333333 0-132.266667-23.466666-151.466667-23.466667-19.2-42.666667-10.666667-68.266667-51.2-23.466667-40.533333-177.066667-70.4-224-44.8s-110.933333 119.466667-49.066667 236.8z" fill="#66C6B9" p-id="27547"></path><path d="M288 861.866667s2.133333-25.6 2.133333-44.8c0-19.2 51.2-36.266667 51.2-36.266667s4.266667 76.8 8.533334 91.733333l4.266666 14.933334s-53.333333 23.466667-66.133333-25.6z" fill="#E8EAE9" p-id="27548"></path><path d="M288 853.333333s4.266667 17.066667 21.333333 23.466667c17.066667 4.266667 36.266667-14.933333 38.4-19.2 0 0 4.266667 29.866667 19.2 40.533333s36.266667 36.266667 36.266667 36.266667-14.933333 17.066667-40.533333 14.933333c-25.6-2.133333-61.866667-25.6-68.266667-36.266666-6.4-10.666667-17.066667-21.333333-6.4-59.733334" fill="#344A5E" p-id="27549"></path><path d="M501.333333 925.866667l-4.266666 6.4v8.533333l25.6 6.4v-4.266667s12.8-2.133333 23.466666 6.4 21.333333 17.066667 36.266667 17.066667c12.8 0 29.866667-2.133333 32-10.666667 4.266667-6.4-76.8-29.866667-113.066667-29.866666z" fill="#415A6B" p-id="27550"></path><path d="M499.2 932.266667s-6.4-32 6.4-46.933334c0 0-2.133333 6.4 4.266667 8.533334 4.266667 2.133333 14.933333-4.266667 32-12.8s32 0 32 0 17.066667 29.866667 23.466666 36.266666c8.533333 6.4 46.933333 23.466667 57.6 23.466667s2.133333 29.866667-23.466666 27.733333c-25.6-2.133333-61.866667-8.533333-76.8-21.333333-17.066667-12.8-55.466667-14.933333-55.466667-14.933333z" fill="#344A5E" p-id="27551"></path><path d="M989.866667 992H637.866667c-10.666667 0-19.2-4.266667-25.6-12.8-6.4-6.4-8.533333-17.066667-8.533334-27.733333l44.8-294.4 206.933334 4.266666 162.133333 277.333334c6.4 10.666667 6.4 23.466667 0 34.133333-4.266667 12.8-14.933333 19.2-27.733333 19.2zM657.066667 667.733333l-42.666667 285.866667c0 6.4 0 14.933333 6.4 19.2 4.266667 6.4 10.666667 8.533333 19.2 8.533333h352c8.533333 0 17.066667-4.266667 21.333333-12.8 4.266667-8.533333 4.266667-17.066667 0-23.466666L853.333333 672l-196.266666-4.266667z" fill="#CED6E0" p-id="27552"></path><path d="M192 381.866667a38.4 25.6 90 1 0 51.2 0 38.4 25.6 90 1 0-51.2 0Z" fill="#344A5E" p-id="27553"></path><path d="M209.066667 603.733333s34.133333 46.933333 55.466666 51.2c0 0-12.8 34.133333 0 81.066667l25.6 93.866667s17.066667-2.133333 29.866667-4.266667c12.8-2.133333 34.133333-12.8 34.133333-27.733333v-78.933334c0-25.6-2.133333-40.533333 2.133334-51.2 4.266667-8.533333-2.133333-17.066667 17.066666-21.333333 19.2-4.266667 85.333333-4.266667 85.333334-4.266667l93.866666 12.8s-19.2 121.6-21.333333 134.4c0 0 8.533333-2.133333 23.466667 6.4s38.4 14.933333 38.4 14.933334 34.133333-70.4 40.533333-91.733334c6.4-21.333333 32-87.466667 36.266667-108.8 6.4-21.333333 6.4-57.6-32-72.533333s-74.666667-14.933333-74.666667-14.933333L256 505.6l-46.933333 98.133333z" fill="#2A3F4F" p-id="27554"></path><path d="M307.2 215.466667l8.533333 25.6c2.133333 6.4 10.666667 51.2 10.666667 51.2l51.2 10.666666 14.933333-34.133333s8.533333-4.266667 10.666667-23.466667 2.133333-36.266667 2.133333-51.2-4.266667-38.4-4.266666-38.4-4.266667-21.333333-10.666667-29.866666c-6.4-8.533333-89.6 10.666667-93.866667 27.733333-4.266667 17.066667 8.533333 55.466667 10.666667 61.866667z" fill="#FFD15C" p-id="27555"></path><path d="M322.133333 273.066667c-2.133333-12.8-4.266667-25.6-6.4-29.866667-2.133333-4.266667-4.266667-14.933333-6.4-21.333333 2.133333 4.266667 2.133333 8.533333 4.266667 14.933333 2.133333 10.666667 6.4 23.466667 8.533333 36.266667z" fill="#FFD15C" p-id="27556"></path><path d="M377.6 302.933333l12.8-29.866666s-14.933333 10.666667-34.133333 4.266666c-19.2-6.4-40.533333-32-40.533334-32s23.466667 42.666667 61.866667 57.6z" fill="#F7B64C" p-id="27557"></path><path d="M356.266667 285.866667h6.4l42.666666-4.266667L471.466667 512s-46.933333 46.933333-89.6 49.066667-113.066667-23.466667-125.866667-29.866667c-10.666667-6.4 51.2-251.733333 51.2-251.733333l49.066667 6.4z" fill="#8AD7F8" p-id="27558"></path><path d="M362.666667 311.466667l6.4 6.4s4.266667 14.933333 6.4 19.2c0 4.266667 36.266667 251.733333 36.266666 251.733333l-21.333333 29.866667-27.733333-23.466667s-21.333333-217.6-17.066667-236.8c2.133333-19.2 8.533333-38.4 8.533333-38.4l8.533334-8.533333z" fill="#E8EAE9" p-id="27559"></path><path d="M347.733333 290.133333l8.533334-2.133333h6.4l14.933333 6.4s-8.533333 17.066667-6.4 25.6c-6.4-2.133333-10.666667-2.133333-17.066667 2.133333 0 0-4.266667-19.2-10.666666-23.466666-8.533333-4.266667 4.266667-8.533333 4.266666-8.533334z" fill="#E8EAE9" p-id="27560"></path><path d="M302.933333 211.2s-12.8 2.133333-32 6.4c-19.2 4.266667-59.733333 8.533333-59.733333 8.533333s10.666667 17.066667 8.533333 42.666667c0 27.733333 14.933333 51.2 14.933334 68.266667s-27.733333 172.8-44.8 206.933333-27.733333 49.066667-29.866667 78.933333c-4.266667 29.866667-12.8 74.666667 0 83.2S189.866667 674.133333 213.333333 640s89.6-162.133333 96-198.4c6.4-38.4-6.4-230.4-6.4-230.4z" fill="#344A5E" p-id="27561"></path><path d="M249.6 452.266667l12.8 6.4s14.933333 4.266667 8.533333-46.933334c0 0-12.8 4.266667-17.066666 8.533334s-4.266667 32-4.266667 32z" fill="#ADB3BA" p-id="27562"></path><path d="M324.266667 292.266667v34.133333c0 23.466667-17.066667 115.2-17.066667 115.2s2.133333-49.066667-4.266667-64c-4.266667-14.933333-29.866667-74.666667-29.866666-74.666667l17.066666-10.666666-12.8-8.533334 23.466667-70.4s2.133333 0 2.133333 2.133334v2.133333l8.533334 25.6c4.266667 4.266667 12.8 40.533333 12.8 49.066667z" fill="#415A6B" p-id="27563"></path><path d="M324.266667 324.266667v2.133333c0 23.466667-17.066667 115.2-17.066667 115.2s2.133333-49.066667-4.266667-64c-4.266667-14.933333-29.866667-74.666667-29.866666-74.666667l17.066666-10.666666-12.8-8.533334 23.466667-70.4c2.133333 2.133333 4.266667 4.266667 4.266667 8.533334 2.133333 4.266667 2.133333 8.533333 4.266666 14.933333 4.266667 12.8 6.4 23.466667 8.533334 36.266667 6.4 17.066667 6.4 34.133333 6.4 51.2z" fill="#415A6B" p-id="27564"></path><path d="M258.133333 418.133333s17.066667 2.133333 17.066667 0c0-4.266667 2.133333-6.4 6.4-10.666666 4.266667-2.133333 8.533333-2.133333 12.8-2.133334 6.4 0 19.2 0 21.333333 4.266667 4.266667 4.266667 0 10.666667-6.4 8.533333-6.4 0-10.666667 0-12.8 2.133334l-2.133333 2.133333s14.933333 4.266667 21.333333 2.133333c6.4-2.133333 19.2-2.133333 25.6-2.133333 6.4 2.133333 12.8 4.266667 10.666667 8.533333 0 0 4.266667 2.133333 2.133333 6.4-2.133333 4.266667-12.8 8.533333-25.6 8.533334-14.933333 0-36.266667 4.266667-49.066666 2.133333-12.8 0-32-4.266667-49.066667-6.4H213.333333l44.8-23.466667zM315.733333 204.8c4.266667 10.666667 4.266667 21.333333 0 23.466667-6.4 2.133333-12.8-4.266667-19.2-14.933334-4.266667-10.666667-4.266667-21.333333 0-23.466666 6.4-2.133333 12.8 4.266667 19.2 14.933333z" fill="#FFD15C" p-id="27565"></path><path d="M561.066667 403.2c0 14.933333-4.266667 25.6-4.266667 25.6l-32 4.266667s-2.133333-42.666667-40.533333-51.2c-2.133333-14.933333-4.266667-27.733333-4.266667-36.266667 0-34.133333 27.733333-104.533333 27.733333-104.533333s12.8 8.533333 10.666667 23.466666c-2.133333 14.933333 8.533333 21.333333 8.533333 29.866667 0 8.533333-2.133333 10.666667 0 19.2 4.266667 6.4 36.266667 74.666667 34.133334 89.6z" fill="#415A6B" p-id="27566"></path><path d="M561.066667 522.666667s-38.4 4.266667-53.333334 6.4c-17.066667 2.133333-25.6 2.133333-32-4.266667-8.533333-6.4-44.8-81.066667-44.8-81.066667s-12.8-59.733333-14.933333-115.2c0-36.266667-8.533333-76.8-12.8-100.266666v-19.2c8.533333 2.133333 32 8.533333 49.066667 12.8 21.333333 6.4 57.6 14.933333 57.6 14.933333s-27.733333 70.4-27.733334 104.533333c0 34.133333 21.333333 151.466667 29.866667 160 10.666667 12.8 49.066667 21.333333 49.066667 21.333334z" fill="#344A5E" p-id="27567"></path><path d="M482.133333 428.8s-14.933333-2.133333-8.533333-49.066667c0 0 8.533333-4.266667 19.2 2.133334 10.666667 6.4 19.2 25.6 14.933333 34.133333-4.266667 8.533333-21.333333 12.8-25.6 12.8z" fill="#CED6E0" p-id="27568"></path><path d="M456.533333 499.2c-2.133333-2.133333-29.866667-38.4-42.666666-85.333333-8.533333-32-14.933333-100.266667-19.2-145.066667 2.133333-4.266667 4.266667-8.533333 6.4-19.2 0-8.533333 2.133333-14.933333 2.133333-23.466667l29.866667 53.333334-6.4 12.8 19.2 2.133333s-10.666667 85.333333-8.533334 108.8c2.133333 21.333333 19.2 91.733333 19.2 96z" fill="#415A6B" p-id="27569"></path><path d="M482.133333 377.6l-8.533333 2.133333s-10.666667 0-17.066667-2.133333c-6.4-2.133333-19.2-8.533333-25.6-4.266667-6.4 2.133333-19.2 25.6-19.2 25.6l51.2 27.733334s6.4-2.133333 8.533334-4.266667c2.133333-2.133333 12.8 4.266667 27.733333 0l17.066667-2.133333s-8.533333-21.333333-12.8-29.866667c-4.266667-8.533333-14.933333-10.666667-21.333334-12.8zM729.6 132.266667l17.066667 12.8V149.333333l-36.266667 93.866667s-10.666667-12.8-19.2-14.933333c-8.533333-2.133333-23.466667 12.8-34.133333 10.666666-10.666667-2.133333-14.933333-6.4-17.066667-10.666666-2.133333-6.4-19.2-6.4-10.666667-14.933334 0 0-6.4 2.133333-6.4-4.266666 0-6.4-6.4-8.533333-6.4-8.533334s-19.2 4.266667-17.066666-6.4 6.4-23.466667 6.4-23.466666-2.133333-2.133333-6.4-4.266667-21.333333-23.466667-19.2-42.666667 76.8-40.533333 106.666666-38.4c27.733333 4.266667 42.666667 46.933333 42.666667 46.933334z" fill="#FFD15C" p-id="27570"></path><path d="M648.533333 776.533333s21.333333 51.2 40.533334 61.866667c19.2 10.666667 25.6 21.333333 25.6 21.333333L631.466667 896s0-29.866667-10.666667-51.2c-10.666667-23.466667-36.266667-46.933333-36.266667-46.933333l64-21.333334z" fill="#E8EAE9" p-id="27571"></path><path d="M635.733333 917.333333s-25.6 14.933333-42.666666 19.2-36.266667 10.666667-36.266667 23.466667c0 12.8 21.333333 19.2 42.666667 19.2s57.6-6.4 68.266666-19.2c10.666667-12.8 27.733333-25.6 27.733334-25.6l8.533333 8.533333s42.666667-21.333333 46.933333-34.133333c6.4-12.8 2.133333-12.8 2.133334-12.8l-10.666667-14.933333-106.666667 36.266666z" fill="#344A5E" p-id="27572"></path><path d="M627.2 881.066667s12.8-12.8 36.266667-12.8 44.8-17.066667 44.8-17.066667 17.066667 4.266667 34.133333 27.733333c0 0-27.733333 12.8-44.8 25.6-17.066667 14.933333-25.6 21.333333-40.533333 25.6-17.066667 6.4-89.6 8.533333-100.266667 29.866667 0 0-2.133333-8.533333 17.066667-17.066667 19.2-10.666667 40.533333-17.066667 44.8-27.733333 6.4-14.933333 8.533333-34.133333 8.533333-34.133333z" fill="#415A6B" p-id="27573"></path><path d="M567.466667 571.733333s-85.333333 10.666667-102.4 23.466667-19.2 38.4-14.933334 53.333333c4.266667 12.8 142.933333 174.933333 155.733334 181.333334 0 0 10.666667-14.933333 27.733333-25.6s21.333333-25.6 21.333333-25.6-57.6-68.266667-74.666666-91.733334c-17.066667-23.466667-23.466667-25.6-23.466667-25.6l85.333333-44.8-74.666666-44.8z" fill="#344A5E" p-id="27574"></path><path d="M938.666667 966.4H610.133333c-8.533333 0-17.066667-4.266667-23.466666-10.666667-6.4-6.4-8.533333-17.066667-6.4-25.6l40.533333-275.2 194.133333 4.266667L966.4 917.333333c6.4 10.666667 6.4 21.333333 0 32s-17.066667 17.066667-27.733333 17.066667zM629.333333 665.6l-40.533333 266.666667c0 6.4 0 12.8 4.266667 17.066666 4.266667 4.266667 10.666667 8.533333 17.066666 8.533334H938.666667c8.533333 0 14.933333-4.266667 19.2-10.666667 4.266667-6.4 4.266667-14.933333 0-23.466667l-149.333334-253.866666-179.2-4.266667z" fill="#ADB3BA" p-id="27575"></path><path d="M405.333333 821.333333s4.266667 12.8 29.866667 17.066667c23.466667 4.266667 53.333333 21.333333 53.333333 21.333333s61.866667-117.333333 68.266667-140.8c6.4-23.466667 10.666667-57.6 10.666667-57.6s70.4-8.533333 140.8-4.266666 170.666667-36.266667 181.333333-59.733334c10.666667-23.466667 17.066667-74.666667 17.066667-74.666666l-221.866667 17.066666s-8.533333 14.933333-27.733333 17.066667c-21.333333 2.133333-106.666667 4.266667-125.866667 12.8-19.2 6.4-38.4 8.533333-46.933333 44.8S437.333333 746.666667 405.333333 821.333333z" fill="#415A6B" p-id="27576"></path><path d="M746.666667 149.333333s-38.4 36.266667-46.933334 93.866667l34.133334 27.733333 40.533333-91.733333L746.666667 149.333333z" fill="#CED6E0" p-id="27577"></path><path d="M904.533333 473.6l-25.6 121.6s-196.266667-12.8-209.066666-36.266667c-12.8-23.466667 4.266667-123.733333 10.666666-147.2 6.4-21.333333 27.733333-74.666667 40.533334-132.266666 12.8-57.6 53.333333-104.533333 53.333333-104.533334l12.8 2.133334s36.266667 19.2 49.066667 27.733333c12.8 8.533333 42.666667 44.8 49.066666 61.866667 2.133333 19.2 19.2 206.933333 19.2 206.933333z" fill="#344A5E" p-id="27578"></path><path d="M763.733333 160s-14.933333 8.533333-27.733333 53.333333c-14.933333 44.8-25.6 98.133333-32 117.333334-6.4 19.2-23.466667 81.066667-23.466667 81.066666s29.866667-74.666667 38.4-104.533333c6.4-29.866667 21.333333-100.266667 68.266667-130.133333l-23.466667-17.066667z" fill="#415A6B" p-id="27579"></path><path d="M595.2 665.6s27.733333-23.466667 46.933333-49.066667c19.2-25.6 76.8-100.266667 130.133334-121.6s198.4-51.2 198.4-51.2-23.466667 93.866667-27.733334 132.266667c-4.266667 38.4-29.866667 104.533333-106.666666 110.933333-76.8 4.266667-241.066667-21.333333-241.066667-21.333333z" fill="#66C6B9" p-id="27580"></path><path d="M746.666667 145.066667c-6.4 6.4-32 10.666667-38.4 2.133333-6.4-10.666667-27.733333-17.066667-36.266667-8.533333-8.533333 10.666667-2.133333 25.6-2.133333 25.6l-10.666667 4.266666s-2.133333-6.4-6.4-10.666666c-4.266667-6.4-19.2-8.533333-19.2-17.066667s-8.533333-23.466667-21.333333-25.6c-12.8-2.133333-29.866667 6.4-29.866667 6.4s-14.933333-4.266667-10.666667-17.066667c4.266667-12.8 34.133333-61.866667 72.533334-74.666666 38.4-8.533333 81.066667 19.2 91.733333 42.666666 8.533333 23.466667 10.666667 72.533333 10.666667 72.533334z" fill="#415A6B" p-id="27581"></path><path d="M676.266667 232.533333c6.4-2.133333 10.666667-6.4 14.933333-4.266666 2.133333 0 4.266667 2.133333 6.4 2.133333 6.4-27.733333 2.133333-59.733333 2.133333-59.733333 0 25.6-23.466667 61.866667-23.466666 61.866666z" fill="#F7B64C" p-id="27582"></path><path d="M473.6 379.733333s17.066667-2.133333 23.466667 6.4c6.4 8.533333 6.4 36.266667-14.933334 42.666667h44.8s4.266667-25.6-8.533333-38.4-25.6-14.933333-44.8-10.666667z" fill="#F3F3F3" p-id="27583"></path><path d="M531.2 330.666667v70.4c-4.266667 2.133333-8.533333 4.266667-10.666667 8.533333-6.4-10.666667-14.933333-25.6-34.133333-29.866667-2.133333-14.933333-4.266667-25.6-4.266667-34.133333v-12.8h49.066667z" fill="#415A6B" p-id="27584"></path><path d="M603.733333 448s-8.533333-2.133333-19.2-2.133333-19.2 4.266667-27.733333 0c-6.4-4.266667-8.533333-6.4-14.933333-4.266667-4.266667 2.133333-6.4 4.266667-8.533334 4.266667-2.133333 0-4.266667 2.133333-4.266666 0-2.133333-2.133333-6.4-4.266667-6.4-6.4 0 0-4.266667-4.266667-2.133334-6.4 0 0-2.133333-4.266667-2.133333-6.4 0 0-8.533333-2.133333-4.266667-10.666667s14.933333-12.8 19.2-17.066667c6.4-4.266667 10.666667-6.4 14.933334-4.266666 6.4 2.133333 25.6 12.8 29.866666 12.8 4.266667 2.133333 61.866667 2.133333 61.866667 2.133333l-2.133333 38.4h-34.133334z" fill="#FFD15C" p-id="27585"></path><path d="M629.333333 403.2h-21.333333s-8.533333 34.133333-4.266667 55.466667l38.4 6.4-12.8-61.866667z" fill="#F3F3F3" p-id="27586"></path><path d="M738.133333 330.666667s-10.666667-61.866667 4.266667-91.733334 59.733333-29.866667 78.933333-10.666666c19.2 19.2 34.133333 64 32 91.733333s-19.2 55.466667-19.2 76.8-6.4 29.866667-14.933333 38.4c-6.4 8.533333-19.2 25.6-27.733333 29.866667-8.533333 2.133333-168.533333 12.8-166.4 10.666666s-6.4-55.466667-4.266667-72.533333c0 0 53.333333-2.133333 61.866667-2.133333 8.533333 2.133333 12.8 0 19.2-4.266667 6.4-2.133333 6.4-4.266667 10.666666-2.133333s12.8 2.133333 17.066667 0c4.266667-2.133333 8.533333-8.533333 8.533333-8.533334s-6.4-27.733333-2.133333-34.133333c4.266667-6.4 2.133333-21.333333 2.133333-21.333333z" fill="#415A6B" p-id="27587"></path><path d="M396.8 288L384 320l-21.333333-34.133333c23.466667-6.4 34.133333-19.2 34.133333-19.2v21.333333zM356.266667 285.866667s-8.533333 6.4-12.8 14.933333c-4.266667 8.533333-8.533333 14.933333-8.533334 14.933333l-10.666666-21.333333c-2.133333-19.2-4.266667-36.266667-8.533334-55.466667 0 4.266667 21.333333 40.533333 40.533334 46.933334z" fill="#FFFFFF" p-id="27588"></path><path d="M305.066667 211.2h4.266666s-8.533333-12.8-4.266666-21.333333-8.533333-34.133333 6.4-29.866667c14.933333 4.266667 51.2-8.533333 61.866666-19.2s14.933333-10.666667 19.2-6.4 8.533333 21.333333 8.533334 21.333333-4.266667-17.066667-8.533334-27.733333 4.266667-21.333333-32-32-68.266667 4.266667-78.933333 32 2.133333 55.466667 10.666667 64c6.4 6.4 12.8 19.2 12.8 19.2z" fill="#415A6B" p-id="27589"></path><path d="M230.4 409.6l38.4 2.133333s-12.8 6.4-12.8 25.6 4.266667 19.2 4.266667 19.2l-64-10.666666c2.133333 2.133333 29.866667-36.266667 34.133333-36.266667z" fill="#F3F3F3" p-id="27590"></path><path d="M258.133333 409.6c-23.466667 10.666667-32 19.2-36.266666 44.8L113.066667 448s2.133333-44.8 4.266666-57.6c2.133333-12.8 10.666667-34.133333 23.466667-46.933333 10.666667-12.8 34.133333-44.8 36.266667-51.2 2.133333-6.4 8.533333-12.8 10.666666-17.066667 2.133333-4.266667 6.4-19.2 8.533334-32 2.133333-14.933333 14.933333-17.066667 14.933333-17.066667s10.666667 17.066667 8.533333 42.666667c0 27.733333 14.933333 51.2 14.933334 68.266667 0 4.266667-2.133333 12.8-2.133334 25.6l-17.066666 38.4 6.4 2.133333 36.266666 6.4z" fill="#415A6B" p-id="27591"></path><path d="M300.8 482.133333h34.133333V917.333333h-34.133333zM622.933333 477.866667H14.933333c-8.533333 0-14.933333-6.4-14.933333-14.933334 0-8.533333 6.4-14.933333 14.933333-14.933333h608c8.533333 0 14.933333 6.4 14.933334 14.933333 0 8.533333-6.4 14.933333-14.933334 14.933334z" fill="#F3705A" p-id="27592"></path><path d="M622.933333 477.866667c-198.4 14.933333-401.066667 12.8-608 0h608z" fill="#F05540" p-id="27593"></path><path d="M497.066667 945.066667H138.666667c0-14.933333 12.8-27.733333 27.733333-27.733334H469.333333c14.933333 0 27.733333 12.8 27.733334 27.733334z" fill="#F3705A" p-id="27594"></path><path d="M462.933333 923.733333l-42.666666 14.933334-29.866667-38.4s17.066667-17.066667 25.6-34.133334c4.266667-8.533333 10.666667-19.2 14.933333-27.733333h2.133334c19.2 4.266667 42.666667 14.933333 49.066666 21.333333-6.4 10.666667-21.333333 42.666667-19.2 64z" fill="#E8EAE9" p-id="27595"></path><path d="M290.133333 953.6h-14.933333s-6.4 8.533333-4.266667 10.666667c2.133333 2.133333 46.933333 19.2 76.8 25.6 27.733333 6.4 66.133333-4.266667 72.533334-10.666667v10.666667h42.666666c6.4 0 10.666667-4.266667 10.666667-10.666667v-14.933333l-14.933333-10.666667h-168.533334z" fill="#344A5E" p-id="27596"></path><path d="M392.533333 896s10.666667 0 17.066667 10.666667 17.066667 17.066667 25.6 19.2c8.533333 2.133333 27.733333-6.4 29.866667-12.8 0 0 8.533333 36.266667 6.4 51.2 0 0-34.133333 0-57.6 10.666666-25.6 8.533333-34.133333 14.933333-61.866667 8.533334s-72.533333-23.466667-76.8-29.866667l38.4-4.266667c19.2-2.133333 38.4-23.466667 51.2-34.133333 12.8-12.8 27.733333-19.2 27.733333-19.2z" fill="#415A6B" p-id="27597"></path><path d="M471.466667 330.666667h-202.666667c-6.4 0-10.666667 4.266667-10.666667 10.666666l14.933334 106.666667h192l14.933333-106.666667c2.133333-4.266667-4.266667-10.666667-8.533333-10.666666z" fill="#CED6E0" p-id="27598"></path><path d="M360.533333 390.4a10.666667 6.4 0 1 0 21.333334 0 10.666667 6.4 0 1 0-21.333334 0Z" fill="#ADB3BA" p-id="27599"></path></svg>