<?xml version="1.0" standalone="no"?><!DOCTYPE svg PUBLIC "-//W3C//DTD SVG 1.1//EN" "http://www.w3.org/Graphics/SVG/1.1/DTD/svg11.dtd"><svg t="1710320405706" class="icon" viewBox="0 0 1024 1024" version="1.1" xmlns="http://www.w3.org/2000/svg" p-id="7126" xmlns:xlink="http://www.w3.org/1999/xlink" width="200" height="200"><path d="M551.003429 80.64c158.573714 0 264.411429 104.137143 264.411428 261.010286 0 92.982857-48.841143 155.136-90.843428 214.710857l44.562285 44.141714c43.300571-64.292571 110.994286-135.424 110.994286-259.291428 0-194.998857-131.565714-325.284571-329.142857-325.284572-110.134857 0-199.277714 40.283429-257.133714 109.714286l47.579428 47.140571c45.860571-58.276571 119.131429-92.141714 209.554286-92.141714z m316.708571 785.152c13.714286 13.275429 33.846857 12.854857 46.72 0 12.854857-12.854857 13.275429-33.865143 0-46.72L155.849143 59.648c-13.275429-12.854857-34.706286-12.434286-47.140572 0-12.434286 12.854857-11.995429 34.706286 0 46.701714z m-471.862857-76.726857h292.297143l-65.152-64.713143H436.150857V697.782857c0-111.853714-141.001143-210.432-141.001143-302.994286 0-9.435429 1.700571-17.572571 3.84-25.709714l-72.411428-71.149714c-3.437714 13.293714-4.717714 27.849143-4.717715 43.282286 0 185.142857 150.418286 251.995429 150.418286 355.712v68.571428c0 14.573714 8.996571 23.588571 23.588572 23.588572z m15.853714 115.712H690.285714c21.851429 0 39.424-17.993143 39.424-40.283429 0-22.272-17.554286-40.283429-39.424-40.283428H411.702857c-21.851429 0-39.424 18.011429-39.424 40.283428 0 22.308571 17.572571 40.283429 39.424 40.283429z m139.300572 103.296c59.136 0 100.717714-27.008 104.996571-68.571429H445.988571c3.419429 41.563429 45.421714 68.571429 104.996572 68.571429z" p-id="7127" fill="#8a8a8a"></path></svg>