<svg xmlns="http://www.w3.org/2000/svg" xmlns:xlink="http://www.w3.org/1999/xlink" t="1709176234593" class="icon" viewBox="0 0 1024 1024" version="1.1" p-id="12340" width="200" height="200"><path d="M550.4 669.866667c4.266667-17.066667 4.266667-34.133333-8.533333-46.933334l-89.6-89.6c72.533333-81.066667 128-179.2 157.866666-277.333333h81.066667c21.333333 0 42.666667-17.066667 42.666667-42.666667 0-21.333333-21.333333-42.666667-42.666667-42.666666h-256V128c0-21.333333-17.066667-42.666667-42.666667-42.666667s-42.666667 21.333333-42.666666 42.666667v42.666667h-256c-21.333333 0-42.666667 17.066667-42.666667 42.666666s21.333333 42.666667 42.666667 42.666667h435.2c-29.866667 81.066667-72.533333 162.133333-136.533334 230.4-34.133333-38.4-64-81.066667-89.6-123.733333-4.266667-12.8-17.066667-21.333333-29.866666-21.333334-29.866667 0-51.2 34.133333-34.133334 59.733334 25.6 46.933333 59.733333 93.866667 98.133334 136.533333l-187.733334 183.466667c-17.066667 17.066667-17.066667 42.666667 0 59.733333 17.066667 17.066667 42.666667 17.066667 59.733334 0L392.533333 597.333333l85.333334 85.333334c21.333333 21.333333 59.733333 12.8 72.533333-12.8z m204.8-243.2c-25.6 0-46.933333 17.066667-59.733333 38.4l-157.866667 418.133333c-8.533333 25.6 8.533333 55.466667 38.4 55.466667 17.066667 0 29.866667-8.533333 38.4-25.6l38.4-102.4H853.333333l38.4 102.4c4.266667 17.066667 21.333333 25.6 38.4 25.6 25.6 0 46.933333-25.6 38.4-55.466667L810.666667 465.066667c-8.533333-21.333333-29.866667-38.4-55.466667-38.4z m-68.266667 298.666666l68.266667-183.466666 68.266667 183.466666h-136.533334z" p-id="12341" fill="#8a8a8a"/></svg>