<?xml version="1.0" standalone="no"?><!DOCTYPE svg PUBLIC "-//W3C//DTD SVG 1.1//EN" "http://www.w3.org/Graphics/SVG/1.1/DTD/svg11.dtd"><svg t="1710222828166" class="icon" viewBox="0 0 1024 1024" version="1.1" xmlns="http://www.w3.org/2000/svg" p-id="89437" xmlns:xlink="http://www.w3.org/1999/xlink" width="200" height="200"><path d="M720.32 768a45.76 45.76 0 0 1-33.408-14.336l-416.64-416.576c-19.072-19.072-19.072-49.28 0-66.752 19.136-19.136 49.28-19.136 66.816 0l416.64 414.976c19.072 19.072 19.072 49.28 0 66.816a44.288 44.288 0 0 1-33.408 15.872z" fill="#8a8a8a" p-id="89438"></path><path d="M303.68 768a45.76 45.76 0 0 1-33.344-14.336c-19.136-19.072-19.136-49.28 0-66.752l414.976-416.64c19.072-19.072 49.28-19.072 66.816 0 19.072 19.136 19.072 49.28 0 66.816l-415.04 416.64a45.76 45.76 0 0 1-33.408 14.272z" fill="#8a8a8a" p-id="89439"></path></svg>