<?xml version="1.0" standalone="no"?><!DOCTYPE svg PUBLIC "-//W3C//DTD SVG 1.1//EN" "http://www.w3.org/Graphics/SVG/1.1/DTD/svg11.dtd"><svg t="1709626547534" class="icon" viewBox="0 0 1024 1024" version="1.1" xmlns="http://www.w3.org/2000/svg" p-id="89544" xmlns:xlink="http://www.w3.org/1999/xlink" width="200" height="200"><path d="M898.304 94.72a320 320 0 0 1 0 452.544l-45.312-45.248a256 256 0 0 0 0-362.048l45.312-45.248zM807.68 185.216a192 192 0 0 1 0 271.552l-45.248-45.248a128 128 0 0 0 0-181.056zM480 97.024a224 224 0 1 1 0 448 224 224 0 0 1 0-448z m0 64a160 160 0 1 0 0 320 160 160 0 0 0 0-320z m0 448c136.512 0 265.6 31.168 381.632 86.528a61.44 61.44 0 0 1 34.368 55.808v145.664a32 32 0 0 1-32 32h-768a32 32 0 0 1-32-32V751.36a61.44 61.44 0 0 1 34.368-55.808A882.24 882.24 0 0 1 480 609.024z m0 64c-125.888 0-244.864 28.48-352 79.36v112.64h704v-112.64a818.24 818.24 0 0 0-352-79.36z" p-id="89545" fill="#8a8a8a"></path></svg>