<svg xmlns="http://www.w3.org/2000/svg" xmlns:xlink="http://www.w3.org/1999/xlink" t="1709175746474" class="icon" viewBox="0 0 1024 1024" version="1.1" p-id="8625" width="200" height="200"><path d="M512 640a170.666667 170.666667 0 0 0 170.666667-170.666667V256a170.666667 170.666667 0 0 0-341.333334 0v213.333333a170.666667 170.666667 0 0 0 170.666667 170.666667z" p-id="8626" fill="#ffffff"/><path d="M810.666667 469.333333a42.666667 42.666667 0 0 0-85.333334 0 213.333333 213.333333 0 0 1-426.666666 0 42.666667 42.666667 0 0 0-85.333334 0 298.666667 298.666667 0 0 0 256 295.253334V853.333333H379.306667a37.973333 37.973333 0 0 0-37.973334 37.973334v9.386666a37.973333 37.973333 0 0 0 37.973334 37.973334h265.386666a37.973333 37.973333 0 0 0 37.973334-37.973334v-9.386666a37.973333 37.973333 0 0 0-37.973334-37.973334H554.666667v-88.746666A298.666667 298.666667 0 0 0 810.666667 469.333333z" p-id="8627" fill="#ffffff"/></svg>