<?xml version="1.0" standalone="no"?><!DOCTYPE svg PUBLIC "-//W3C//DTD SVG 1.1//EN" "http://www.w3.org/Graphics/SVG/1.1/DTD/svg11.dtd"><svg t="1709880868688" class="icon" viewBox="0 0 1024 1024" version="1.1" xmlns="http://www.w3.org/2000/svg" p-id="21377" xmlns:xlink="http://www.w3.org/1999/xlink" width="200" height="200"><path d="M708.923077 0v531.534769H315.076923L216.615385 630.153846 118.153846 531.534769H0V0h708.923077z m-315.076923 315.076923H157.538462v78.769231h236.307692V315.076923z m157.538461-157.538461H157.538462v78.76923h393.846153V157.538462z" fill="#CADEFF" p-id="21378"></path><path d="M512 471.000615c0 84.992 37.533538 163.564308 98.461538 206.060308 60.928 42.496 135.995077 42.496 196.923077 0 60.928-42.535385 98.461538-121.068308 98.461539-206.060308C905.846154 385.969231 840.625231 354.461538 708.923077 354.461538c-131.702154 0-196.923077 31.507692-196.923077 116.539077z" fill="#FBF9F2" p-id="21379"></path><path d="M942.867692 583.325538c-4.056615 57.895385-31.862154 99.249231-81.368615 110.788924-30.72 7.168-68.056615 10.712615-112.246154 10.712615v-33.752615c41.747692 0 76.681846-3.308308 104.566154-9.846154 34.146462-7.955692 52.263385-36.352 55.374769-80.265846l33.634462 2.363076z" fill="#666666" p-id="21380"></path><path d="M433.230769 472.615385c0 105.038769 11.145846 157.538462 33.398154 157.538461h66.835692v-157.538461H433.230769z m551.384616 0c0 105.038769-11.145846 157.538462-33.398154 157.538461h-66.835693v-157.538461H984.615385z" fill="#000000" p-id="21381"></path><path d="M393.846154 770.087385c100.548923-30.601846 111.222154-30.601846 180.696615-61.164308 0 112.049231 13.902769 203.027692 41.747693 315.076923H393.846154v-253.912615z m630.153846 0c-100.548923-30.601846-111.222154-30.601846-180.696615-61.164308 0 112.049231-13.902769 203.027692-41.747693 315.076923H1024v-253.912615z" fill="#468CFF" p-id="21382"></path><path d="M560.600615 669.538462C532.952615 636.179692 512 587.027692 512 481.831385s61.243077-204.524308 148.834462-198.025847c129.969231-29.696 218.190769 21.267692 239.261538 164.864 13.902769 94.916923 3.465846 165.021538-41.196308 212.164924-22.331077-53.169231-34.579692-115.081846-36.78523-185.816616-37.021538 41.156923-94.444308 60.652308-228.667077 53.051077-19.613538-1.102769-35.997538 137.452308-32.84677 141.469539z" fill="#333333" p-id="21383"></path><path d="M754.057846 720.462769a33.752615 33.752615 0 1 0 33.752616-58.486154 33.752615 33.752615 0 0 0-33.752616 58.486154z" fill="#333333" p-id="21384"></path><path d="M610.461538 748.307692h118.114462l118.193231-39.384615-156.238769 157.538461z" fill="#81B1FF" p-id="21385"></path></svg>