<?xml version="1.0" standalone="no"?><!DOCTYPE svg PUBLIC "-//W3C//DTD SVG 1.1//EN" "http://www.w3.org/Graphics/SVG/1.1/DTD/svg11.dtd"><svg t="1709881157103" class="icon" viewBox="0 0 1024 1024" version="1.1" xmlns="http://www.w3.org/2000/svg" p-id="45131" xmlns:xlink="http://www.w3.org/1999/xlink" width="200" height="200"><path d="M0 507.392c0 277.504 224.768 502.272 502.272 502.272s502.272-224.768 502.272-502.272S779.776 5.12 502.272 5.12 0 229.888 0 507.392z" fill="#FFF1E3" p-id="45132"></path><path d="M164.352 944.128c0-194.048 147.968-351.232 330.24-351.232h15.36c143.872 2.56 330.752 156.672 330.752 351.232V1024H164.352v-79.872z" fill="#337AF4" p-id="45133"></path><path d="M370.688 617.984h244.224s70.656 89.088 70.656 145.408c0 101.888-19.456 260.608-19.456 260.608H318.976s-19.456-159.232-19.456-260.608c0-56.832 71.168-145.408 71.168-145.408z" fill="#F9F6F9" p-id="45134"></path><path d="M614.912 617.472c-31.744 67.584-112.64 96.768-180.224 65.024-28.16-13.312-50.688-35.84-64-64.512l244.224-0.512zM415.232 501.76h154.624s0 67.584 9.728 87.04c9.728 19.456 35.328 28.672 35.328 28.672l-244.224 0.512s25.088-9.728 34.816-29.184c9.728-19.456 9.728-87.04 9.728-87.04z" fill="#FFCBBE" p-id="45135"></path><path d="M289.792 318.976c0 112.128 90.624 202.752 202.752 202.752s202.752-90.624 202.752-202.752c0-112.128-90.624-202.752-202.752-202.752-111.616-0.512-202.752 90.624-202.752 202.752z" fill="#E49542" p-id="45136"></path><path d="M608.768 367.104h43.52c29.184 0 52.736 23.552 52.736 52.736v10.24c0 29.184-23.552 52.736-52.736 52.736h-43.52V367.104z" fill="#333333" p-id="45137"></path><path d="M347.648 231.936h289.792v183.296c0 79.872-65.024 144.896-144.896 144.896S347.648 495.616 347.648 415.232V231.936z" fill="#FFDDCE" p-id="45138"></path><path d="M405.504 367.104c74.752 0 135.168-60.416 135.168-135.168 0-47.104-24.576-90.624-64.512-115.2-102.4 8.704-180.224 96.256-177.152 199.168 26.112 32.256 65.536 51.2 106.496 51.2z" fill="#E49542" p-id="45139"></path><path d="M503.296 116.224c106.496 6.144 187.904 97.28 182.272 203.776-0.512 7.168-1.024 13.824-2.56 20.992-81.408 25.088-167.936-20.48-193.536-101.888-12.288-40.96-7.168-85.504 13.824-122.88z" fill="#E49542" p-id="45140"></path><path d="M656.896 463.872v38.4c0 15.872-12.8 29.184-29.184 29.184H578.56c-4.608-16.896-19.968-29.184-37.376-29.184h-19.456c-21.504 0-38.4 17.408-38.4 38.4 0 21.504 17.408 38.4 38.4 38.4h19.456c17.92 0 33.28-12.288 37.376-29.184h49.664c26.624 0 48.128-21.504 48.128-48.128v-38.4l-19.456 0.512z" fill="#333333" p-id="45141"></path><path d="M415.232 135.168c0 42.496 34.816 77.312 77.312 77.312s77.312-34.816 77.312-77.312-34.816-77.312-77.312-77.312-77.312 34.816-77.312 77.312z" fill="#E49542" p-id="45142"></path><path d="M579.584 811.52h77.312v38.4h-77.312v-38.4z" fill="#337AF4" p-id="45143"></path></svg>