<?xml version="1.0" standalone="no"?><!DOCTYPE svg PUBLIC "-//W3C//DTD SVG 1.1//EN" "http://www.w3.org/Graphics/SVG/1.1/DTD/svg11.dtd"><svg t="1709879854413" class="icon" viewBox="0 0 1024 1024" version="1.1" xmlns="http://www.w3.org/2000/svg" p-id="5739" xmlns:xlink="http://www.w3.org/1999/xlink" width="200" height="200"><path d="M914.828912 890.574449c2.65627 14.915515-7.28674 29.158961-22.198254 31.813231l-209.845313 37.347793c-61.552251 26.804722-127.022901 40.394103-194.655769 40.394103-50.693149 0-100.578215-7.736786-148.459078-23.014338-17.245752 6.454656-36.805738 9.204935-55.117598 6.828694-24.660505-3.198325-47.65884-14.317454-72.111324-18.929923-16.659692-3.142319-35.54361-6.706681-53.035386-17.255752-13.447366-8.110824-25.252565-19.808012-36.093666-35.761632-20.308063-29.885035-30.651113-65.038605-29.126958-98.986054 0.168017-3.726378 0.504051-7.530765 1.004102-11.385156C32.867338 717.316852 0 617.45271 0 512.002c0-54.333518 8.870901-107.656934 26.378679-158.614109L6.630673 249.425332c-3.630369-7.170728-4.23843-15.813606-0.948096-23.798417 4.638471-11.259144 16.849711-18.721901 29.026948-17.555783l85.204654-16.487674c92.903436-106.710838 226.533007-167.709033 368.213396-167.709033 77.249846 0 153.857626 18.445873 222.22257 53.429426l128.943096-24.958535a28.642909 28.642909 0 0 1 13.037324-3.15632c15.433567 0 28.75292 13.557377 28.574902 28.996945l138.914108 502.805066a28.908936 28.908936 0 0 1 2.982303 6.570667c5.704579 18.331862-9.75099 38.131873-28.912936 37.013759l-32.547306 7.500762a483.649121 483.649121 0 0 1-48.870963 121.290319l11.609179 65.204622a27.436787 27.436787 0 0 1-16.135639 29.995047l6.884699 42.008266z" fill="#FFFFFF" p-id="5740"></path><path d="M486.475408 512m-460.69679 0a460.69679 460.69679 0 1 0 921.393579 0 460.69679 460.69679 0 1 0-921.393579 0Z" fill="#A2B7FF" p-id="5741"></path><path d="M30.447092 236.516021l105.834749 557.19459 857.583098-197.664075-143.190542-518.284638z" fill="#58304D" p-id="5742"></path><path d="M86.994835 259.902396l92.867432 473.10805 757.970982-166.534913-126.896888-446.689367z" fill="#7B50B6" p-id="5743"></path><path d="M89.069046 262.468657a1.160118 1.160118 0 0 1-0.438044-0.084009l-56.551744-23.386375a1.148117 1.148117 0 0 1-0.620063-1.496152 1.156117 1.156117 0 0 1 1.496152-0.620063l56.551744 23.386376c0.580059 0.242025 0.862088 0.910092 0.620063 1.496151a1.154117 1.154117 0 0 1-1.058108 0.704072zM809.824248 122.68646a1.140116 1.140116 0 0 1-0.830085-1.928195l39.736036-42.022268a1.140116 1.140116 0 1 1 1.660169 1.572159l-39.736036 42.022268a1.146116 1.146116 0 0 1-0.830084 0.356036zM991.108659 595.352465a1.08011 1.08011 0 0 1-0.532054-0.134013l-56.02969-29.571003a1.136115 1.136115 0 0 1-0.478049-1.540157 1.134115 1.134115 0 0 1 1.540157-0.478048l56.02969 29.571003a1.136115 1.136115 0 0 1 0.478049 1.540156 1.134115 1.134115 0 0 1-1.008103 0.612062zM136.283841 794.854727a1.142116 1.142116 0 0 1-0.930094-1.808183l43.576426-60.704165a1.142116 1.142116 0 1 1 1.858188 1.330135l-43.576425 60.704165a1.136115 1.136115 0 0 1-0.928095 0.478048z" fill="#7B50B6" p-id="5744"></path><path d="M313.79987 401.7188a80.776204 80.776204 0 0 1 5.566566 12.945314 232.525616 232.525616 0 0 1 3.998406 13.455367c0.306031 1.190121 0.828084 3.096314 1.57816 5.71258 0.752076 2.620266 1.540156 5.556564 2.378242 8.810895a163.584614 163.584614 0 0 1 2.278231 10.325049c0.684069 3.628369 1.126114 7.034714 1.330135 10.225038 0.202021 3.192324 0.058006 6.028612-0.440045 8.506864-0.500051 2.480252-1.542157 4.222429-3.15032 5.236532-1.608163 1.014103-3.554361 1.316134-5.844593 0.924094-2.292233-0.39404-4.686476-1.202122-7.18473-2.434248a58.353927 58.353927 0 0 1-7.68478-4.604467 125.472743 125.472743 0 0 1-7.332745-5.518561 158.594107 158.594107 0 0 1-6.050615-5.154523 283.438787 283.438787 0 0 1-3.984404-3.632369c0.210021 1.094111 0.560057 2.828287 1.058107 5.200528a132.173424 132.173424 0 0 1 1.410143 8.186832 181.65845 181.65845 0 0 1 1.120114 9.634978c0.30003 3.340339 0.434044 6.520662 0.39604 9.536969-0.036004 3.018307-0.354036 5.716581-0.956097 8.094822-0.600061 2.380242-1.626165 4.112418-3.090314 5.198528-1.930196 1.434146-4.110417 1.994203-6.560666 1.692172-2.452249-0.304031-4.964504-1.168119-7.538766-2.596264-2.574261-1.430145-5.186527-3.220327-7.836795-5.378546a94.589607 94.589607 0 0 1-7.430755-6.722683 203.380656 203.380656 0 0 1-10.73109-11.669185c-2.402244-2.848289-4.852493-5.654574-7.180729-8.404854a154.185659 154.185659 0 0 1-6.828694-8.682882c-0.78608-1.076109-1.820185-2.580262-3.098315-4.516458a26.994742 26.994742 0 0 1-3.068311-6.264637 16.83571 16.83571 0 0 1-0.88409-6.778688c0.174018-2.272231 1.344137-4.394446 3.506356-6.208631 1.822185-1.528155 3.922398-2.204224 6.164626-2.028206 2.240228 0.180018 4.536461 0.934095 6.8867 2.266231 2.350239 1.332135 4.654473 3.046309 6.912702 5.134521a89.957136 89.957136 0 0 1 6.20463 6.320642 89.653105 89.653105 0 0 1 4.9225 6.022612c1.400142 1.892192 2.36624 3.324338 2.900294 4.294436l1.592162 2.626267a111.691344 111.691344 0 0 1-1.386141-4.962504 148.983131 148.983131 0 0 1-1.822185-7.906803c-0.612062-2.992304-1.196121-6.10062-1.738176-9.326948a70.639174 70.639174 0 0 1-0.972099-9.192933c-0.10201-2.902295 0.032003-5.462555 0.402041-7.67678 0.368037-2.212225 1.120114-3.766383 2.234227-4.612469 1.454148-1.102112 3.34434-1.420144 5.600569-0.950096 2.254229 0.472048 4.63047 1.466149 7.116722 2.972302 2.490253 1.510153 5.010509 3.356341 7.564769 5.534562a143.684593 143.684593 0 0 1 7.152726 6.528663 94.02755 94.02755 0 0 1 5.71458 6.066616c1.598162 1.87019 2.742279 3.190324 3.436349 3.956402-0.560057-1.134115-1.364139-2.978302-2.408244-5.530562a141.968419 141.968419 0 0 1-3.206326-8.726886 113.181495 113.181495 0 0 1-2.900294-10.315048 61.73227 61.73227 0 0 1-1.552158-10.375053c-0.19402-3.306336 0.076008-6.274637 0.810082-8.892904 0.734075-2.618266 2.124216-4.546462 4.160423-5.766585 2.310235-1.386141 4.484455-1.914194 6.50066-1.592162a10.977115 10.977115 0 0 1 5.310539 2.370241c1.528155 1.254127 2.86029 2.714276 3.996406 4.374444a48.84096 48.84096 0 0 1 2.65827 4.268434zM399.85461 415.274176c0.572058 1.390141 0.696071 2.9583 0.342035 4.630471-0.342035 1.610164-1.832186 3.984405-4.342441 7.106721a140.648285 140.648285 0 0 1-8.578871 9.634979 218.616203 218.616203 0 0 1-9.388954 9.172932c-3.064311 2.810285-5.41255 4.664474-7.08672 5.530561-1.174119 0.608062-2.668271 1.096111-4.482455 1.47815-1.816184 0.378038-3.694375 0.646066-5.636572 0.798081-1.942197 0.154016-3.796386 0.130013-5.558565-0.066006-1.762179-0.19802-3.158321-0.546055-4.184425-1.060108-0.58806-0.302031-1.414144-1.104112-2.474251-2.406244a63.634463 63.634463 0 0 1-3.450351-4.704478c-1.240126-1.834186-2.522256-3.802386-3.84839-5.9026a480.152766 480.152766 0 0 1-3.756382-6.018611 166.122872 166.122872 0 0 1-4.880496-8.438857 150.729308 150.729308 0 0 1-4.358442-9.072921 94.673615 94.673615 0 0 1-4.03241-10.811098 57.953886 57.953886 0 0 1-2.280231-11.313149c-0.372038-3.800386-0.042004-7.378749 1.004102-10.72909 0.332034-0.9881 1.306133-2.368241 2.928297-4.13242 1.628165-1.760179 3.634369-3.672373 6.028612-5.718581a154.111652 154.111652 0 0 1 7.932806-6.30664 174.633736 174.633736 0 0 1 8.498863-5.958605 218.238165 218.238165 0 0 1 7.638776-4.800488c2.320236-1.386141 4.122419-2.36424 5.392548-2.942299a13.313352 13.313352 0 0 1 4.482455-1.178119c1.524155-0.118012 2.914296 0.022002 4.180424 0.414042a10.04502 10.04502 0 0 1 3.310337 1.716174c0.944096 0.750076 1.640167 1.67617 2.092212 2.770281 0.39004 0.950096 0.550056 1.826185 0.486049 2.628267a11.361154 11.361154 0 0 1-0.614062 2.85629c-0.482049 1.330135-2.122216 3.386344-4.620469 6.070617a271.203544 271.203544 0 0 1-8.220835 8.412854 529.109738 529.109738 0 0 1-8.586872 8.27084c-2.75228 2.586263-5.532562 4.774485-5.748584 5.51256-0.270027 0.926094 0.810082 3.680374 1.196121 5.560565 0.39004 1.882191 0.900091 3.722378 1.538157 5.522561 2.270231-2.574261 4.966504-5.254534 8.088821-8.014814 3.124317-2.762281 6.322642-4.902498 9.574973-6.426653 6.59267-3.086313 11.001117-1.998203 13.157336 3.088314 0.524053 1.238126 0.684069 2.46225 0.49005 3.672373a10.821099 10.821099 0 0 1-1.264129 3.562362 19.015931 19.015931 0 0 1-2.456249 3.402345c-0.990101 1.108113-1.960199 2.192223-2.912296 3.25033a103.354497 103.354497 0 0 1-7.598772 7.508763 1836.486518 1836.486518 0 0 0-8.102823 7.28274c0.09601 0.660067 0.218022 1.372139 0.366038 2.138217 0.148015 0.766078 0.378038 1.466149 0.684069 2.106214 0.478049 0.996101 1.044106 1.948198 1.696172 2.85429l1.956199 2.720276c0.908092-0.816083 2.36224-2.132217 4.380445-3.930399a237.810153 237.810153 0 0 1 6.424652-5.520561 131.927399 131.927399 0 0 1 6.698681-5.202528c2.194223-1.586161 3.882394-2.636268 5.046512-3.164322a10.621079 10.621079 0 0 1 4.060413-0.9841c1.360138-0.046005 2.610265 0.140014 3.730378 0.550056a9.600975 9.600975 0 0 1 3.058311 1.830186c0.914093 0.814083 1.58016 1.730176 2.000203 2.750279zM471.483885 391.739786c0.542055 1.902193 0.106011 3.966403-1.27613 6.192629-1.386141 2.232227-3.34634 4.474454-5.864595 6.752686-2.522256 2.276231-5.408549 4.506458-8.652879 6.706681a211.779509 211.779509 0 0 1-9.676983 6.186628 169.837249 169.837249 0 0 1-9.142928 5.140522c-2.894294 1.496152-5.202528 2.594263-6.948706 3.270333-1.656168 0.640065-3.468352 1.200122-5.436552 1.686171s-3.728379 0.540055-5.288537 0.152015c-0.868088-0.158016-1.862189-0.902092-2.992304-2.232226a59.628056 59.628056 0 0 1-3.680374-4.888497 94.905639 94.905639 0 0 1-3.984405-6.360646 167.076969 167.076969 0 0 1-3.74038-6.844695 268.347254 268.347254 0 0 1-3.132318-6.264636 77.157836 77.157836 0 0 1-2.052208-4.534461 135.363748 135.363748 0 0 1-2.452249-6.742685 211.375468 211.375468 0 0 1-2.710275-8.628876 163.044559 163.044559 0 0 1-2.478252-9.554971 131.695375 131.695375 0 0 1-1.808184-9.446959c-0.460047-3.014306-0.658067-5.816591-0.58806-8.404854 0.066007-2.586263 0.402041-4.72648 1.004102-6.418651 1.104112-2.744279 3.106315-4.694477 5.986608-5.818591 1.984202-0.774079 3.860392-0.922094 5.616571-0.450046s3.342339 1.354138 4.756483 2.636268a22.436279 22.436279 0 0 1 3.83839 4.640471 51.841265 51.841265 0 0 1 3.034308 5.51256c0.880089 1.864189 1.610164 3.616367 2.190222 5.256534l1.382141 3.912397a322.132717 322.132717 0 0 1 5.61457 17.449772 312.663755 312.663755 0 0 0 5.638573 17.443772l1.546157 4.356442a179.964278 179.964278 0 0 1 12.377257-7.766789c4.546462-2.610265 9.05892-4.620469 13.501371-6.032612 1.57216-0.500051 3.194324-0.928094 4.864494-1.27813 1.664169-0.346035 3.200325-0.464047 4.598467-0.348035 1.396142 0.118012 2.622266 0.534054 3.682374 1.254127 1.060108 0.712072 1.818185 1.87019 2.274231 3.466352zM529.097736 333.135834c0.266027 1.47815 0.320033 3.076312 0.164017 4.790487a14.803503 14.803503 0 0 1-1.338136 4.940501 12.785299 12.785299 0 0 1-3.206325 4.208428c-1.404143 1.226125-3.228328 2.056209-5.488558 2.500254-3.44235 0.676069-6.088618 0.722073-7.958808 0.10201-1.87419-0.618063-3.318337-1.584161-4.320439-2.904295a12.031222 12.031222 0 0 1-2.126216-4.456452 131.733379 131.733379 0 0 0-1.244126-4.648473c-0.420043-1.444147-1.008102-2.590263-1.77218-3.438349-0.762077-0.844086-2.052208-1.068108-3.860392-0.662067-2.014205 0.454046-3.64237 1.418144-4.884496 2.886293-1.242126 1.468149-2.198223 3.222327-2.870292 5.254534-0.672068 2.034207-1.104112 4.256432-1.302132 6.664677a57.1118 57.1118 0 0 0-0.150015 7.062717c0.09801 2.298233 0.29203 4.452452 0.582059 6.458656 0.288029 2.006204 0.58806 3.622368 0.89009 4.852493 0.39804 1.612164 0.944096 3.516357 1.634166 5.706579a23.078344 23.078344 0 0 0 2.912296 6.060616 13.997422 13.997422 0 0 0 4.62647 4.368444c1.832186 1.064108 4.142421 1.262128 6.940705 0.618062a27.47479 27.47479 0 0 0 5.340542-1.808183 108.347004 108.347004 0 0 0 5.058514-2.486253c1.680171-0.878089 3.404346-1.696172 5.164524-2.454249 1.762179-0.758077 3.588364-1.320134 5.484557-1.682171 2.174221-0.416042 4.112418-0.028003 5.796589 1.152117 1.682171 1.18212 2.680272 2.672271 3.006305 4.462453 0.452046 2.492253-0.064007 4.970505-1.522154 7.450757-1.458148 2.478252-3.382344 4.788486-5.766586 6.946706a40.704134 40.704134 0 0 1-7.984811 5.61857c-2.940299 1.590162-5.666576 2.680272-8.194832 3.25233-6.510661 1.47615-12.291248 1.582161-17.439771 0.254026s-9.666982-3.54036-13.563378-6.684679a41.336198 41.336198 0 0 1-9.788994-11.403158c-2.616266-4.470454-4.62847-9.092924-5.996609-13.88341-0.910092-3.192324-1.530155-6.802691-1.834186-10.8331a64.69057 64.69057 0 0 1 0.282028-12.489268 59.952089 59.952089 0 0 1 2.976303-12.841305 45.184589 45.184589 0 0 1 6.21063-11.851203c2.65427-3.632369 5.924602-6.822693 9.804996-9.54897 3.878394-2.722276 8.436857-4.674475 13.639385-5.80859 5.096518-1.110113 9.580973-1.034105 13.395361 0.186019 3.810387 1.222124 7.022713 3.112316 9.636979 5.648574a27.340777 27.340777 0 0 1 6.076617 8.786892c1.438146 3.316337 2.432247 6.536664 2.990303 9.65098zM577.618664 391.121723c-5.646573 0.624063-10.689086 0.048005-15.203544-1.77218a33.349387 33.349387 0 0 1-11.885207-8.106823c-3.410346-3.594365-6.272637-7.916804-8.558869-12.991319a67.760882 67.760882 0 0 1-4.968505-16.371663 61.93229 61.93229 0 0 1-0.534054-16.991726c0.604061-5.872596 2.17022-11.335151 4.744482-16.369662 2.570261-5.034511 6.214631-9.368952 10.941111-12.951316 4.720479-3.580364 10.721089-5.798589 17.91782-6.556666 6.984709-0.734075 13.003321 0.154016 17.953823 2.576262 4.950503 2.424246 8.980912 5.80659 12.081227 10.087024 3.098315 4.280435 5.406549 9.162931 6.958707 14.619485a79.038027 79.038027 0 0 1 2.844289 16.469673c0.402041 6.150625 0.008001 12.001219-1.122114 17.559783-1.132115 5.560565-3.046309 10.513068-5.71058 14.883512a34.16347 34.16347 0 0 1-10.299046 10.749092c-4.204427 2.810285-9.236938 4.512458-15.15954 5.166524z m-6.068616-65.908694c-1.942197 0.208021-3.524358 0.9841-4.752483 2.320236-1.224124 1.334135-2.16822 3.020307-2.826287 5.050513-0.660067 2.032206-1.030105 4.270434-1.112113 6.708681a43.970466 43.970466 0 0 0 0.366038 7.304742c0.366037 2.744279 0.956097 5.458554 1.758178 8.146828 0.802081 2.692273 1.786181 5.080516 2.938299 7.168728 1.156117 2.092212 2.46425 3.728379 3.926398 4.912499 1.462148 1.18412 3.096314 1.67817 4.9205 1.48215 2.106214-0.226023 3.686374-1.260128 4.750483-3.112316 1.062108-1.854188 1.832186-4.030409 2.304234-6.536664a39.444006 39.444006 0 0 0 0.680069-7.68478c-0.022002-2.618266-0.118012-4.790487-0.29603-6.520662a46.012673 46.012673 0 0 0-1.218124-6.674678 29.04695 29.04695 0 0 0-2.420246-6.386649c-1.024104-1.926196-2.272231-3.500356-3.74038-4.700477-1.47215-1.202122-3.240329-1.698172-5.278536-1.478151zM718.528976 375.62615a49.729051 49.729051 0 0 1-1.792182 5.840593 28.202864 28.202864 0 0 1-2.412245 4.996507c-0.898091 1.434146-1.9722 2.534257-3.228328 3.300335a6.410651 6.410651 0 0 1-4.13442 0.896091c-1.504153-0.166017-2.792284-1.272129-3.876394-3.322337-1.08611-2.050208-2.06421-4.720479-2.944299-8.008813-0.88209-3.290334-1.654168-6.982709-2.320236-11.079126-0.668068-4.094416-1.250127-8.240837-1.742177-12.435263-0.49405-4.194426-0.880089-8.282841-1.158117-12.257245a524.359255 524.359255 0 0 1-0.638065-10.373053 1120.533804 1120.533804 0 0 1-2.670271 9.861001 193.799683 193.799683 0 0 1-3.416347 11.057123 232.281591 232.281591 0 0 1-4.048411 10.967114c-1.424145 3.574363-2.908295 6.752686-4.454453 9.538969s-3.14832 5.000508-4.810488 6.644675c-1.668169 1.646167-3.390344 2.426246-5.184527 2.342238-1.606163-0.074008-3.192324-1.050107-4.778485-2.924297-1.588161-1.878191-3.132318-4.318439-4.640471-7.324744a98.081961 98.081961 0 0 1-4.302437-10.001016 292.689726 292.689726 0 0 1-3.842391-11.02712c-1.200122-3.690375-2.274231-7.178729-3.206325-10.465063a214.493785 214.493785 0 0 1-2.204224-8.250838c0.020002 1.656168 0.016002 3.494355-0.010001 5.504559a174.907764 174.907764 0 0 0-0.022002 4.320439c0.006001 0.39604-0.006001 1.698172-0.026003 3.908397a113.391516 113.391516 0 0 1-0.418042 7.928806 149.26716 149.26716 0 0 1-1.18012 9.879003 54.571542 54.571542 0 0 1-2.35624 9.758991c-1.044106 2.998305-2.340238 5.526561-3.892395 7.586771s-3.490354 3.182323-5.826592 3.378343c-1.900193-0.682069-3.516357-1.852188-4.858493-3.520358-1.342136-1.666169-2.496254-3.628369-3.456351-5.892598a44.470517 44.470517 0 0 1-2.35624-7.276739 122.226414 122.226414 0 0 1-1.544156-7.596772 76.611781 76.611781 0 0 1-0.868088-6.902701 224.076758 224.076758 0 0 1-0.344035-5.206529c-0.122012-2.36624-0.106011-5.348543 0.062006-8.950909 0.168017-3.602366 0.554056-7.38875 1.18012-11.361154a93.103456 93.103456 0 0 1 2.688273-11.929211c1.174119-3.980404 2.672271-7.550767 4.502457-10.707088 1.830186-3.15432 4.022409-5.734582 6.576668-7.728785 2.550259-1.994203 5.550564-2.996304 8.972911-2.980302 1.604163 0.008001 3.322337 0.69407 5.150523 2.058209 1.824185 1.366139 3.64437 3.15232 5.446554 5.358544a66.074711 66.074711 0 0 1 5.204528 7.406752 160.282279 160.282279 0 0 1 4.700478 8.260839 108.20899 108.20899 0 0 1 3.830389 7.960809 177.318009 177.318009 0 0 1 2.636267 6.450655 149.901224 149.901224 0 0 1 7.562768-14.117434 83.180448 83.180448 0 0 1 5.302539-7.732785 52.305312 52.305312 0 0 1 6.088618-6.68868c2.112215-1.938197 4.254432-3.470352 6.410651-4.596467 2.158219-1.126114 4.312438-1.590162 6.460657-1.392141 3.750381 0.346035 6.900701 1.696172 9.410955 4.022409 2.510255 2.328236 4.52646 5.230531 6.038614 8.694883 1.512154 3.466352 2.598264 7.28474 3.266331 11.449162 0.666068 4.168423 1.08611 8.264839 1.268129 12.293249 0.180018 4.028409 0.176018 7.77679-0.008001 11.243142a193.395642 193.395642 0 0 1-0.59206 8.37085l-0.344035 3.524358c-0.146015 1.490151-0.334034 3.170322-0.566057 5.044512a94.183566 94.183566 0 0 1-0.950097 5.944604 134.353645 134.353645 0 0 1-1.336135 6.256636zM793.912632 384.239024c-0.310031 1.458148-1.100112 2.784283-2.346239 3.890395-1.200122 1.066108-3.804386 2.028206-7.678779 2.9503-3.880394 0.922094-8.094822 1.698172-12.639284 2.342238-4.546462 0.648066-8.878902 1.150117-13.019322 1.488151-4.13842 0.340035-7.134725 0.368037-9.014916 0.024002-1.318134-0.240024-2.832288-0.774079-4.552462-1.592161a48.358911 48.358911 0 0 1-5.11852-2.842289 31.591208 31.591208 0 0 1-4.560463-3.482354c-1.348137-1.244126-2.302234-2.384242-2.860291-3.422347-0.316032-0.602061-0.546055-1.754178-0.69007-3.44235a65.846688 65.846688 0 0 1-0.20202-5.874596c0.008001-2.224226 0.058006-4.582465 0.142014-7.074719a501.450929 501.450929 0 0 1 0.284029-7.110722 163.790635 163.790635 0 0 1 0.718073-9.728988c0.326033-2.892294 0.828084-6.20063 1.504153-9.913007a91.925336 91.925336 0 0 1 2.752279-11.099127 54.685554 54.685554 0 0 1 4.482455-10.417058c1.832186-3.256331 4.118418-5.9046 6.872698-7.926805 0.830084-0.582059 2.416245-1.08411 4.754483-1.484151 2.338237-0.400041 5.082516-0.682069 8.224836-0.830084a152.159454 152.159454 0 0 1 10.153031-0.118012c3.626368 0.074008 7.108722 0.248025 10.449061 0.516052 3.336339 0.270027 6.372647 0.576059 9.096924 0.912093 2.726277 0.336034 4.788486 0.676069 6.180628 1.004102a14.361459 14.361459 0 0 1 4.420449 1.844187c1.344137 0.852087 2.428247 1.826185 3.268331 2.922297 0.836085 1.096111 1.436146 2.236227 1.800183 3.420347a6.880699 6.880699 0 0 1 0.178018 3.502356c-0.212022 0.996101-0.576059 1.792182-1.08811 2.390243a10.565073 10.565073 0 0 1-2.138217 1.888191c-1.158118 0.758077-3.704376 1.372139-7.322744 1.956199-3.620368 0.580059-7.502762 1.110113-11.649183 1.592162-4.146421 0.484049-8.090822 0.908092-11.845203 1.262128-3.756382 0.354036-7.324744 0.39004-7.900803 0.832084-0.720073 0.552056-1.408143 3.428348-2.148218 5.164525-0.740075 1.738177-1.356138 3.518357-1.842187 5.344543 3.340339-0.646066 7.096721-1.112113 11.261144-1.37814 4.166423-0.264027 8.048817 0.012001 11.629181 0.816083 7.256737 1.630166 10.33505 5.232531 9.250939 10.613078-0.264027 1.308133-0.826084 2.382242-1.67617 3.222327-0.854087 0.842086-1.880191 1.526155-3.082313 2.046208-1.200122 0.522053-2.530257 0.914093-3.986405 1.18212-1.456148 0.268027-2.882293 0.528054-4.278434 0.780079a102.582419 102.582419 0 0 1-10.593076 1.268129 1505.792932 1505.792932 0 0 0-10.861103 0.78608c-0.29203 0.58606-0.59406 1.226125-0.902092 1.928195a8.200833 8.200833 0 0 0-0.620063 2.100214 18.669896 18.669896 0 0 0-0.20402 3.318337l0.086008 3.374342c1.216124-0.088009 3.168322-0.236024 5.864596-0.420042a229.323291 229.323291 0 0 1 8.474861-0.418043 130.487253 130.487253 0 0 1 8.540867 0.012002c2.734278 0.10001 4.742482 0.312032 6.016611 0.614062a11.537172 11.537172 0 0 1 3.958402 1.736176 10.963113 10.963113 0 0 1 2.814286 2.75428c0.708072 1.026104 1.218124 2.144218 1.522155 3.354341 0.310031 1.206122 0.348035 2.350239 0.120012 3.422347zM454.390149 456.156328c1.786181 5.154524 2.002203 10.34305 0.752076 15.567581-1.252127 5.226531-3.600366 10.101026-7.022713 14.679491 2.526257-0.49005 4.852493-0.516052 6.974709-0.10001a15.415566 15.415566 0 0 1 5.71658 2.346238 17.7218 17.7218 0 0 1 4.444451 4.364444 22.870323 22.870323 0 0 1 3.038309 5.896599c1.48015 4.252432 1.758179 8.332846 0.892091 12.235242a28.784923 28.784923 0 0 1-4.802488 10.695086c-2.330237 3.240329-5.156524 6.110621-8.488862 8.644878a52.001281 52.001281 0 0 1-10.445061 6.224633 50.645144 50.645144 0 0 1-6.176627 2.26823 27.972841 27.972841 0 0 1-6.316642 1.124114c-0.736075 0.090009-1.664169-0.538055-2.792284-1.878191-1.126114-1.340136-2.322236-3.062311-3.586364-5.168524a141.776399 141.776399 0 0 1-3.884394-6.928704 320.78458 320.78458 0 0 1-3.722378-7.270739 216.227961 216.227961 0 0 1-2.966302-6.188628l-1.722174-3.766383-3.470353-7.590771c-1.164118-2.546259-2.198223-5.226531-3.234328-7.700782-0.266027-0.634064-0.736075-1.658168-1.318134-3.044309-0.582059-1.38014-1.242126-2.926297-1.974201-4.63247a141.558377 141.558377 0 0 1-2.192222-5.444553 97.951948 97.951948 0 0 1-1.900193-5.456555c-0.534054-1.712174-0.880089-3.230328-1.036106-4.556462-0.156016-1.322134-0.054005-2.248228 0.304031-2.770282a59.394032 59.394032 0 0 1 4.888497-6.022611 65.962699 65.962699 0 0 1 6.088618-5.820591 69.143022 69.143022 0 0 1 6.776688-5.028511 42.3363 42.3363 0 0 1 6.916703-3.680374 35.34959 35.34959 0 0 1 9.494964-2.482252c3.206326-0.370038 6.178628-0.174018 8.892903 0.580059a18.539883 18.539883 0 0 1 7.220734 3.832389c2.098213 1.798183 3.64237 4.160423 4.650472 7.072718z m-18.237852 13.725394c-0.484049-1.252127-1.266129-1.998203-2.350239-2.240227-1.08211-0.240024-2.318235-0.072007-3.696375 0.504051-1.140116 0.476048-2.250229 1.198122-3.326338 2.17022a11.473165 11.473165 0 0 0-2.492253 3.132319c-0.150015 0.324033-0.118012 1.042106 0.10401 2.150218 0.222023 1.110113 0.536054 2.328236 0.944096 3.658372 0.408041 1.330135 0.828084 2.568261 1.256128 3.716377 0.428043 1.150117 0.718073 1.904193 0.868088 2.270231l0.29403 0.712072c0.136014 0.328033 0.29603 0.666068 0.488049 1.014103 0.190019 0.348035 0.382039 0.652066 0.582059 0.908092 0.19802 0.258026 0.376038 0.352036 0.534055 0.282029 1.332135-0.578059 2.516256-1.624165 3.566362-3.142319a19.942025 19.942025 0 0 0 2.498254-5.032512c0.614062-1.838187 1.002102-3.686374 1.166118-5.544563 0.164017-1.860189 0.020002-3.378343-0.436044-4.558463z m11.903209 32.125263c-0.486049-1.252127-1.288131-1.950198-2.410245-2.086212-1.120114-0.136014-2.256229 0.036004-3.406346 0.516053-1.076109 0.450046-2.108214 1.164118-3.098315 2.144217-0.990101 0.9841-1.728176 1.9682-2.216225 2.9543-0.168017 0.246025-0.186019 0.684069-0.060006 1.318134 0.126013 0.632064 0.314032 1.304132 0.564057 2.014205l0.704072 2.020205c0.218022 0.638065 0.374038 1.064108 0.464047 1.28413l0.362037 0.874089c0.180018 0.438044 0.386039 0.88609 0.622063 1.344137a7.400752 7.400752 0 0 0 0.764078 1.216123c0.278028 0.356036 0.49005 0.498051 0.638064 0.432044 1.042106-0.454046 2.076211-1.240126 3.110316-2.36824a19.281958 19.281958 0 0 0 2.66027-3.692375c0.742075-1.338136 1.250127-2.720276 1.528156-4.158423 0.276028-1.436146 0.204021-2.708275-0.226023-3.812387zM535.288365 487.3855c0.338034 1.548157 0.608062 3.432349 0.810082 5.654574a26.956738 26.956738 0 0 1-0.192019 6.546665c-0.330034 2.142218-0.9861 4.03441-1.9682 5.678577-0.9841 1.646167-2.526257 2.714276-4.638471 3.226328-2.792284 0.674068-5.130521 0.166017-7.050716-1.550158-1.920195-1.712174-3.560362-3.920398-4.912499-6.632673a53.911475 53.911475 0 0 1-3.372343-8.496863 1330.671146 1330.671146 0 0 0-2.146217-7.042716 6428.020846 6428.020846 0 0 1-16.011627 7.126724c0.354036 1.794182 0.660067 4.058412 0.920094 6.786689 0.260026 2.732277 0.234024 5.448553-0.072008 8.148828-0.306031 2.702274-0.996101 5.174526-2.064209 7.420754-1.068108 2.250229-2.740278 3.74438-5.030511 4.504457-1.77418 0.59006-3.370342 0.402041-4.802488-0.572058-1.430145-0.970099-2.712275-2.26423-3.834389-3.882394a26.578699 26.578699 0 0 1-2.820287-5.232532 88.462985 88.462985 0 0 1-1.77818-4.716479 79.038027 79.038027 0 0 1-3.204326-13.009321 225.542907 225.542907 0 0 1-1.644167-13.29335 168.407104 168.407104 0 0 1-0.582059-8.318845 100.470204 100.470204 0 0 1 0.068007-10.091025c0.19602-3.520358 0.630064-7.074719 1.314134-10.661083a43.994468 43.994468 0 0 1 3.128317-10.009016 27.726816 27.726816 0 0 1 5.602569-8.146827c2.330237-2.340238 5.212529-3.994406 8.614875-4.938502 3.312336-0.920093 6.374647-1.040106 9.15293-0.376038 2.778282 0.664067 5.346543 1.850188 7.696782 3.54836a29.853032 29.853032 0 0 1 6.298639 6.218632 64.730574 64.730574 0 0 1 4.960504 7.604772 106.968864 106.968864 0 0 1 3.922398 7.798792c1.162118 2.576262 2.180221 4.858493 3.064312 6.846696a209.82331 209.82331 0 0 1 6.094619 14.625485 110.253198 110.253198 0 0 1 4.476454 15.233547z m-29.923039-22.386274a90.529194 90.529194 0 0 0-1.372139-4.482455 47.938869 47.938869 0 0 0-2.470251-6.094619c-0.972099-1.988202-2.114215-3.686374-3.436349-5.088517s-2.744279-1.892192-4.258433-1.466148c-0.840085 0.236024-1.496152 0.976099-1.964199 2.220225-0.468048 1.244126-0.774079 2.732277-0.912093 4.460453a45.326603 45.326603 0 0 0-0.078008 5.644573c0.090009 2.034207 0.224023 3.974404 0.402041 5.818591 0.178018 1.846188 0.388039 3.494355 0.634065 4.946503 0.246025 1.454148 0.416042 2.496254 0.512052 3.128317a273.241751 273.241751 0 0 0 13.817403-5.760585l-0.874089-3.326338zM591.120036 435.358216c0.160016 1.494152 0.134014 3.084313-0.074008 4.772485a16.023627 16.023627 0 0 1-1.350137 4.780485 11.583176 11.583176 0 0 1-2.896294 3.874394c-1.240126 1.08411-2.820286 1.734176-4.750483 1.958199-2.942299 0.340035-5.184527 0.128013-6.744685-0.670068-1.564159-0.796081-2.748279-1.894192-3.55036-3.302336a13.929415 13.929415 0 0 1-1.630166-4.62647 160.020252 160.020252 0 0 0-0.876089-4.73248c-0.30003-1.47215-0.756077-2.668271-1.374139-3.584364-0.616063-0.912093-1.706173-1.260128-3.260331-1.038106a6.624673 6.624673 0 0 0-4.270434 2.368241c-1.112113 1.330135-1.992202 2.968301-2.638268 4.912499-0.646066 1.946198-1.092111 4.100416-1.346137 6.464656a64.760577 64.760577 0 0 0-0.374038 6.974709c0.004 2.284232 0.09401 4.43445 0.272028 6.450655 0.176018 2.014205 0.374038 3.64637 0.59006 4.894497 0.282029 1.636166 0.680069 3.576363 1.190121 5.81459a27.122755 27.122755 0 0 0 2.256229 6.29864c0.990101 1.962199 2.240228 3.560362 3.750381 4.802488 1.506153 1.242126 3.44235 1.67817 5.818591 1.326135a19.189949 19.189949 0 0 0 4.556462-1.252128c1.450147-0.598061 2.900295-1.252127 4.344442-1.958199a56.02569 56.02569 0 0 1 4.43645-1.926195 18.757905 18.757905 0 0 1 4.676475-1.138116c1.846188-0.204021 3.456351 0.364037 4.82049 1.696173 1.364139 1.332135 2.136217 2.906295 2.334237 4.712478 0.274028 2.516256-0.264027 4.928501-1.586161 7.250737a26.210662 26.210662 0 0 1-5.102519 6.338643 30.927141 30.927141 0 0 1-6.884699 4.786486c-2.516256 1.28213-4.830491 2.086212-6.962707 2.396244-5.490558 0.796081-10.327049 0.29203-14.599483-1.57016s-8.000813-4.536461-11.189136-8.066819c-3.190324-3.530359-5.842593-7.626775-7.932806-12.327252a71.561268 71.561268 0 0 1-4.684476-14.359458c-0.682069-3.25033-1.104112-6.880699-1.244126-10.891106a72.941408 72.941408 0 0 1 0.618063-12.29925c0.560057-4.184425 1.536156-8.310844 2.9503-12.367256 1.412143-4.054412 3.314337-7.750787 5.71658-11.067124a34.4595 34.4595 0 0 1 8.742888-8.446858c3.424348-2.304234 7.408752-3.782384 11.90921-4.398446 4.410448-0.602061 8.246838-0.09601 11.455163 1.48015a22.336269 22.336269 0 0 1 7.986811 6.514662 29.883035 29.883035 0 0 1 4.788487 9.290943c1.074109 3.428348 1.77418 6.718682 2.108214 9.863002zM661.125146 488.231586c-0.024002 2.212225-0.598061 3.986405-1.706174 5.332542-1.110113 1.346137-2.794284 1.988202-5.058514 1.942197-1.798183-0.038004-3.458351-0.614062-4.998507-1.734176s-2.972302-2.488253-4.304437-4.108418-2.518256-3.334339-3.560362-5.144522a112.651441 112.651441 0 0 1-2.586263-4.716479 1723.829076 1723.829076 0 0 0-5.374545-9.869002c-1.800183-3.282333-3.608366-6.59267-5.430552-9.93901-2.906295 1.840187-4.346441 2.770281-7.202732 4.652473a39.103971 39.103971 0 0 1 0.044005 6.878698c-0.186019 2.302234-0.252026 4.636471-0.306031 6.894701-0.038004 1.560158-0.216022 3.312336-0.454046 5.180526a21.028136 21.028136 0 0 1-1.384141 5.290537 12.093228 12.093228 0 0 1-2.892294 4.250432c-1.250127 1.18212-2.840288 1.832186-4.784486 1.964199-1.790182 0.122012-3.298335-0.146015-4.53246-0.804081a9.518967 9.518967 0 0 1-3.134318-2.664271 12.391258 12.391258 0 0 1-1.978201-3.878394 22.512286 22.512286 0 0 1-0.928094-4.562463l-0.09401-0.944096a122.866479 122.866479 0 0 1-0.586059-14.053427 177.746052 177.746052 0 0 0-0.310032-14.193442c-0.39804-6.20463-0.804082-12.461266-1.136115-18.701899a700.351129 700.351129 0 0 1-0.694071-18.739904 16.217647 16.217647 0 0 1 0.422043-4.194426 10.585075 10.585075 0 0 1 1.702173-3.756381 9.608976 9.608976 0 0 1 3.104315-2.780283c1.260128-0.720073 2.802285-1.142116 4.62047-1.252127 2.814286-0.172017 4.990507 0.58806 6.510661 2.252229 1.516154 1.664169 2.616266 3.712377 3.302335 6.132623 0.68607 2.422246 1.08011 4.934501 1.190121 7.538766 0.108011 2.602264 0.218022 4.774485 0.320033 6.508661 0.29603 4.968505 0.460047 9.94301 0.504051 14.923515a70.879199 70.879199 0 0 0 6.940705-6.782689 72.95741 72.95741 0 0 0 6.022611-7.612773c1.08211-1.520154 2.328236-3.616367 3.756382-6.278637a76.687789 76.687789 0 0 1 4.746482-7.734786c1.738177-2.492253 3.688375-4.658473 5.842593-6.49866s4.482455-2.738278 6.948706-2.690273c2.646269 0.052005 4.588466 0.758077 5.80859 2.096213 1.222124 1.338136 1.816184 3.074312 1.796182 5.206528-0.030003 3.15432-0.628064 6.370647-1.764179 9.650981a54.94558 54.94558 0 0 1-4.464453 9.65098 77.48787 77.48787 0 0 1-6.136623 9.014915c-2.254229 2.85829-4.494456 5.354544-6.742685 7.490761a181.378421 181.378421 0 0 1 6.876698 11.217139 564.517334 564.517334 0 0 1 6.254635 11.409159c0.736075 1.28013 1.446147 2.678272 2.132217 4.194426 0.682069 1.516154 1.302132 3.074312 1.854188 4.668474 0.550056 1.598162 0.998101 3.188324 1.344137 4.780486 0.352036 1.588161 0.516052 3.094314 0.500051 4.512458z" fill="#FFE7E1" p-id="5745"></path><path d="M785.867815 476.530398l20.918124-63.750475 3.984405 63.750475 58.769969 2.988303-56.21971 19.641995 1.434146 57.057795-19.922024-42.83235-41.836249 48.808957 23.906428-63.750475-54.589544-32.10326z" fill="#FFD27B" p-id="5746"></path><path d="M280.596498 587.147632l-20.062037-64.024502 40.320095 49.541031 49.545031-31.751225-34.309484 48.676944 34.351489 45.58063-41.116176-23.256362-5.646574 64.036503-17.62979-65.762679-63.078407 5.634572z" fill="#FFD27B" p-id="5747"></path><path d="M252.003594 417.218374s-90.533195 13.757397-94.849633-3.018307c-4.316438-16.775704 94.849633 3.018307 94.849633 3.018307zM254.085806 407.093345s-87.43488-27.216764-83.98053-44.190488c3.454351-16.975724 83.980529 44.190488 83.98053 44.190488z" fill="#FFE7E1" p-id="5748"></path><path d="M750.146187 283.348778s-18.535883-89.677108-2.010204-94.875636c16.523678-5.198528 2.010204 94.875636 2.010204 94.875636zM760.369225 284.892934s22.54629-88.755014 39.68003-86.204755c17.13374 2.550259-39.68003 86.204755-39.68003 86.204755z" fill="#FFE7E1" p-id="5749"></path><path d="M219.168259 730.730215c-10.417058-6.030612-22.312266-10.571074-34.273481-9.222937-11.249142 1.268129-21.348168 7.624774-29.725019 15.239548-21.552189 19.587989-33.923445 48.398916-35.233578 77.49387-1.310133 29.094955 8.042817 58.247916 24.410479 82.336363 7.378749 10.857103 16.329658 20.910124 27.5708 27.688812 19.435974 11.72119 43.300398 12.475267 65.222625 18.355864 16.527679 4.43445 32.313282 11.91321 49.285005 14.115434 28.822927 3.73838 58.313923-8.710885 79.088032-29.036949 20.77411-20.326064 33.507403-47.764851 40.328096-76.017721 3.198325-13.243345 5.192527-26.994742 3.366342-40.496113-4.338441-32.083258-32.171267-59.246017-64.250525-63.628462-26.28867-3.592365-47.970872 7.736786-67.232829 24.254463-12.763296 10.945112-17.897818-3.628369-26.044645-13.48737-9.100924-11.011118-20.144046-20.434075-32.511302-27.594802z" fill="#FF676C" p-id="5750"></path><path d="M352.227773 798.655113c-1.77218 12.881308 0.474048 26.722714 8.332846 37.079766 2.742279 3.612367 6.438654 6.902701 10.941112 7.460758 6.154625 0.764078 11.8192-3.84439 14.97352-9.182933 4.362443-7.38075 5.41055-16.337659 4.594467-24.872526-1.08611-11.383156-7.196731-25.126552-19.846016-27.556798-10.563073-2.028206-17.685796 7.550767-18.995929 17.071733zM385.781181 869.182276a11.671185 11.671185 0 1 1-23.302367-1.424144 11.673186 11.673186 0 0 1 23.302367 1.424144z" fill="#FFE7E1" p-id="5751"></path><path d="M268.50327 710.762187l-3.64437 77.107831c-0.052005 1.08611 1.542157 1.246127 1.706173 0.172018l11.937212-77.531875-9.999015 0.252026z" fill="#7B50B6" p-id="5752"></path><path d="M855.346871 760.749264l-352.825834 62.798378c-27.290772 4.858493-53.351419-13.327354-58.207911-40.618126-4.856493-27.290772 13.327354-53.351419 40.618125-58.207911l352.825834-62.798378 1.850188 10.397056-37.155774 49.259002 50.737153 27.040747 2.158219 12.129232z" fill="#FFA71D" p-id="5753"></path><path d="M501.65695 809.94026a39.384 39.384 0 0 0 9.614976-0.476049l341.914726-60.866182-0.754077-4.212427-0.120012-0.834085h-0.040004l-1.86619-10.687085-0.160016-0.874089-1.708173-9.574973-0.158016-0.834084-1.906194-10.687086-0.120012-0.834085-1.708174-9.574972-0.158016-0.834085-1.908194-10.727089-0.158016-0.834085-1.828185-10.369053v-0.040004l-0.954097-5.362545-341.95473 60.866182c-4.13242 0.754077-7.984811 2.06621-11.481166 3.972403l-4.13842 44.664537 19.59199 28.118856z" fill="#FFE7E1" p-id="5754"></path><path d="M840.713385 678.512911l-353.595912 62.972396-9.176932 1.628165c0.39804-0.39804 0.794081-0.754077 1.192121-1.112112l7.826795-1.390142 353.635916-62.932391v0.040004l0.118012 0.79408zM842.579574 688.921969l-353.277879 62.892387-20.144046 3.576363c0.120012-0.358036 0.278028-0.636065 0.438044-0.954097l19.547986-3.496355 353.277879-62.852383 0.158016 0.834085zM844.645784 700.483143L491.765945 763.297522l-25.904631 4.608468c0-0.318032 0.080008-0.596061 0.080008-0.874088l25.626603-4.568464 352.919843-62.81238 0.158016 0.832085zM846.47397 710.8922L493.950167 773.626571l-27.572801 4.926501-0.158016-0.874089 27.532797-4.886496 352.601811-62.734372z" fill="#FFACA9" p-id="5755"></path><path d="M844.645784 700.483143L491.765945 763.297522l-25.904631 4.608468c0-0.318032 0.080008-0.596061 0.080008-0.874088l25.626603-4.568464 352.919843-62.81238 0.158016 0.832085zM846.47397 710.8922L493.950167 773.626571l-27.572801 4.926501-0.158016-0.874089 27.532797-4.886496 352.601811-62.734372z" fill="#FFACA9" p-id="5756"></path><path d="M848.54018 722.41537l-352.165767 62.694368-26.022643 4.648472c-0.118012-0.278028-0.278028-0.556056-0.39804-0.794081l26.262667-4.688476 352.165767-62.694367 0.158016 0.834084zM850.406369 732.864432l-351.80773 62.614359-21.056139 3.734379c-0.238024-0.238024-0.476048-0.516052-0.754076-0.716073l21.612195-3.854391 351.847734-62.654363 0.158016 0.876089z" fill="#FFACA9" p-id="5757"></path><path d="M848.54018 722.41537l-352.165767 62.694368-26.022643 4.648472c-0.118012-0.278028-0.278028-0.556056-0.39804-0.794081l26.262667-4.688476 352.165767-62.694367 0.158016 0.834084zM850.406369 732.864432l-351.80773 62.614359-21.056139 3.734379c-0.238024-0.238024-0.476048-0.516052-0.754076-0.716073l21.612195-3.854391 351.847734-62.654363 0.158016 0.876089z" fill="#FFACA9" p-id="5758"></path><path d="M852.432575 744.385602l-351.41169 62.574355-7.906803 1.390141c-0.596061-0.120012-1.192121-0.358036-1.748178-0.556056l9.494965-1.66817 351.41169-62.574355h0.040004l0.120012 0.834085z" fill="#FFACA9" p-id="5759"></path><path d="M501.65695 809.94026c-2.940299-0.19802-5.800589-0.754077-8.540868-1.590162-6.638674-1.328135-13.181339-6.372647-17.579785-11.303148a38.827943 38.827943 0 0 1-9.316947-19.367967c-1.692172-10.031019 0.558057-19.944026 6.308641-28.302874a38.787939 38.787939 0 0 1 13.675389-12.221242l0.756077 3.456351 0.158016 0.874089 2.026206 9.45496 0.158016 0.874089 2.26423 10.647081 0.19802 0.834085 1.986201 9.494965 0.198021 0.834084 2.26423 10.647082 0.160016 0.834084 2.026206 9.534969 0.19802 0.834084 2.26423 10.647082 0.160016 0.834084 0.636065 2.984304z" fill="#FFACA9" p-id="5760"></path><path d="M895.986999 823.23361l-405.703205 72.251338c-18.831913 3.35234-36.815739-9.196934-40.166079-28.028847-3.35234-18.831913 9.196934-36.815739 28.028847-40.166079l405.851219-72.107324 1.812184 10.895107-24.934532 35.041559 33.353387 12.353254 1.758179 9.760992z" fill="#FFD27B" p-id="5761"></path><path d="M489.421707 884.829866c1.906194 0.080008 3.854391 0 5.840593-0.358037l398.96652-70.99721-0.914093-5.244533-0.080008-0.436044-1.032105-5.80059-0.080008-0.476048-0.954097-5.204528-0.080008-0.476049-1.034105-5.800589-0.080008-0.438044-0.914093-5.204529-0.080008-0.476048-1.032105-5.800589-0.080008-0.476049-0.954097-5.204528-0.040004-0.436045h-0.040004l-1.032105-5.920601-399.006524 70.997211c-1.628165 0.278028-3.178323 0.754077-4.648472 1.350137l-6.874698 23.82642 14.149437 22.576293z" fill="#FFE7E1" p-id="5762"></path><path d="M886.918078 772.43445L483.065061 844.30575l-11.283146 2.026206c0.158016-0.19802 0.278028-0.358036 0.438045-0.516053l10.767093-1.906193 403.853017-71.911304h0.040004l0.038004 0.436044zM887.952183 778.115027L483.979154 850.026331l-15.613586 2.780282c0.080008-0.19802 0.080008-0.358036 0.19802-0.516052l15.335558-2.742279 403.973029-71.911303 0.080008 0.478048zM889.064296 784.393665l-404.093041 71.951308-17.957824 3.178322c0-0.19802 0.040004-0.318032 0.080008-0.516052l17.799808-3.178323 404.093041-71.911303 0.078008 0.476048zM890.056396 790.034238l-404.211052 71.951307-18.433873 3.298335-0.080008-0.478048 18.433873-3.296335 404.213052-71.911303z" fill="#FFACA9" p-id="5763"></path><path d="M889.064296 784.393665l-404.093041 71.951308-17.957824 3.178322c0-0.19802 0.040004-0.318032 0.080008-0.516052l17.799808-3.178323 404.093041-71.911303 0.078008 0.476048zM890.056396 790.034238l-404.211052 71.951307-18.433873 3.298335-0.080008-0.478048 18.433873-3.296335 404.213052-71.911303z" fill="#FFACA9" p-id="5764"></path><path d="M891.17051 796.312876l-404.331065 71.951307-17.401768 3.098315c-0.040004-0.158016-0.160016-0.278028-0.160016-0.436045l17.481776-3.100314L891.090501 795.834827l0.080009 0.478049zM892.202614 801.993452l-404.489081 71.991312-14.739497 2.622266c-0.158016-0.160016-0.278028-0.278028-0.39804-0.438044l15.057529-2.702275 404.489081-71.951307 0.080008 0.478048z" fill="#FFACA9" p-id="5765"></path><path d="M891.17051 796.312876l-404.331065 71.951307-17.401768 3.098315c-0.040004-0.158016-0.160016-0.278028-0.160016-0.436045l17.481776-3.100314L891.090501 795.834827l0.080009 0.478049zM892.202614 801.993452l-404.489081 71.991312-14.739497 2.622266c-0.158016-0.160016-0.278028-0.278028-0.39804-0.438044l15.057529-2.702275 404.489081-71.951307 0.080008 0.478048z" fill="#FFACA9" p-id="5766"></path><path d="M893.314727 808.230086l-404.609093 72.031316-9.176932 1.628165c-0.19802-0.120012-0.438044-0.19802-0.636064-0.358036l9.732988-1.748178 404.609093-71.991312 0.080008 0.438045z" fill="#FFACA9" p-id="5767"></path><path d="M489.421707 884.829866a23.674404 23.674404 0 0 1-9.893005-2.940299c-5.422551-2.996304-9.54697-8.068819-11.443162-14.005423-1.706173-5.346543-1.340136-11.295147 0.796081-16.467672 2.424246-5.872596 7.354747-10.685085 13.269347-12.991319l0.834085 5.482556 0.080008 0.398041 0.834085 5.244532 0.080008 0.476049 0.914093 5.800589 0.080008 0.516052 0.794081 5.164525 0.080008 0.476048 0.914093 5.840593 0.080008 0.438045 0.79408 5.204528 0.080009 0.516053 0.914092 5.800589 0.080009 0.476048 0.712072 4.570465z" fill="#FF676C" p-id="5768"></path><path d="M886.796065 895.200919l-405.757209 72.287342c-18.831913 3.35234-36.815739-9.196934-40.16608-28.028847-3.35234-18.831913 9.196934-36.813739 28.028847-40.16608l405.76121-72.221335 1.888192 10.997117-10.675084 27.214764 19.135943 20.18205 1.784181 9.734989z" fill="#FFACA9" p-id="5769"></path><path d="M481.67492 956.861181c1.430145 0 2.86029-0.120012 4.33044-0.39804l399.006524-70.997211-0.954097-5.244533-0.080008-0.438044-1.034105-5.800589-0.080008-0.476048-0.914093-5.204529-0.080008-0.476048-1.034105-5.80059-0.080008-0.438044-0.954097-5.204529-0.080008-0.476048-1.032105-5.800589-0.080008-0.478049-0.914093-5.164524-0.080008-0.436044-1.072109-5.958606-398.96852 70.997211a22.140249 22.140249 0 0 0-6.514662 2.184222l-5.378546 24.676506 15.993624 20.934126z" fill="#FFE7E1" p-id="5770"></path><path d="M877.701142 844.463766L472.297968 916.573089l-9.734989 1.748178c0.120012-0.19802 0.278028-0.358036 0.39804-0.516052l9.256941-1.630166 405.403173-72.149328 0.080009 0.438045zM878.695242 850.106339L473.608101 922.215663l-14.501473 2.582262c0.080008-0.19802 0.120012-0.358036 0.238024-0.516053l14.183441-2.542258 405.085141-72.109323 0.082008 0.476048zM879.807355 856.382976L475.07825 928.454296l-17.281755 3.060311c0-0.160016 0-0.318032 0.040004-0.476048l17.123739-3.058311 404.767109-72.07132 0.080008 0.474048zM880.83946 862.025549l-404.449077 71.991312-18.235852 3.256331-0.080008-0.436044 18.195848-3.258331 404.491081-71.991312z" fill="#FFACA9" p-id="5771"></path><path d="M879.807355 856.382976L475.07825 928.454296l-17.281755 3.060311c0-0.160016 0-0.318032 0.040004-0.476048l17.123739-3.058311 404.767109-72.07132 0.080008 0.474048zM880.83946 862.025549l-404.449077 71.991312-18.235852 3.256331-0.080008-0.436044 18.195848-3.258331 404.491081-71.991312z" fill="#FFACA9" p-id="5772"></path><path d="M881.951573 868.302187l-404.133045 71.951307-17.599787 3.138319c-0.080008-0.160016-0.158016-0.278028-0.19802-0.476048l17.679795-3.138319 404.171049-71.951307 0.080008 0.476048zM882.945674 873.982764L479.130662 945.856064l-15.415566 2.742278a1.154117 1.154117 0 0 1-0.358036-0.39604l15.65359-2.780283 403.853016-71.911303 0.082008 0.472048z" fill="#FFACA9" p-id="5773"></path><path d="M881.951573 868.302187l-404.133045 71.951307-17.599787 3.138319c-0.080008-0.160016-0.158016-0.278028-0.19802-0.476048l17.679795-3.138319 404.171049-71.951307 0.080008 0.476048zM882.945674 873.982764L479.130662 945.856064l-15.415566 2.742278a1.154117 1.154117 0 0 1-0.358036-0.39604l15.65359-2.780283 403.853016-71.911303 0.082008 0.472048z" fill="#FFACA9" p-id="5774"></path><path d="M884.057787 880.221397l-403.49698 71.831296-10.289045 1.828186c-0.19802-0.120012-0.438044-0.19802-0.636065-0.358037l10.847102-1.946197 403.49698-71.791292 0.078008 0.436044z" fill="#FFACA9" p-id="5775"></path><path d="M481.67492 956.861181c-4.052412 0-7.984811-1.072109-11.403158-2.980302-4.592466-2.56426-8.316845-6.546665-10.391055-11.381156-1.746177-4.074414-2.450249-8.314844-1.880191-12.729293 1.028104-7.954808 5.880597-14.927516 13.065327-18.519881l1.152117 4.9265 0.080008 0.398041 1.232125 5.164524 0.080008 0.476049 1.350137 5.760585 0.118012 0.476048 1.192121 5.12452 0.118012 0.438045 1.312133 5.760585 0.118012 0.478048 1.192122 5.164525 0.118012 0.436044 1.350137 5.720581 0.080008 0.476049 1.116113 4.810488z" fill="#7B50B6" p-id="5776"></path><path d="M493.772149 153.635604l12.625282 76.497769 8.154828-80.634189z" fill="#FFE7E1" p-id="5777"></path><path d="M541.466993 92.095353l-72.113324 6.356646 20.226054 28.918937-48.706947 27.390782 135.829795 7.080719-48.792955-32.559307z" fill="#FF676C" p-id="5778"></path><path d="M348.267371 170.43531l51.135193 58.279919-35.675623-72.771391z" fill="#FFE7E1" p-id="5779"></path><path d="M356.252182 92.985444l-57.869878 43.494417 32.451296 13.869409-26.88473 48.986975 119.066092-65.746677-58.625954-1.86819z" fill="#FFA71D" p-id="5780"></path><path d="M229.267285 287.753225l70.975208 31.199169-63.092407-50.867167z" fill="#FFE7E1" p-id="5781"></path><path d="M203.760694 214.189754l-34.055458 63.880488 35.269582-1.148117-3.654371 55.759663 80.110136-109.917163-53.921477 23.090345z" fill="#FFACA9" p-id="5782"></path><path d="M87.254862 576.59256m-24.12445 0a24.12445 24.12445 0 1 0 48.2489 0 24.12445 24.12445 0 1 0-48.2489 0Z" fill="#FFE7E1" p-id="5783"></path><path d="M660.015033 140.7963m-24.12445 0a24.12445 24.12445 0 1 0 48.2489 0 24.12445 24.12445 0 1 0-48.2489 0Z" fill="#FFE7E1" p-id="5784"></path><path d="M882.581637 641.961199m-24.12445 0a24.12445 24.12445 0 1 0 48.2489 0 24.12445 24.12445 0 1 0-48.2489 0Z" fill="#FFE7E1" p-id="5785"></path></svg>