<?xml version="1.0" standalone="no"?><!DOCTYPE svg PUBLIC "-//W3C//DTD SVG 1.1//EN" "http://www.w3.org/Graphics/SVG/1.1/DTD/svg11.dtd"><svg t="1709881360908" class="icon" viewBox="0 0 1024 1024" version="1.1" xmlns="http://www.w3.org/2000/svg" p-id="66332" xmlns:xlink="http://www.w3.org/1999/xlink" width="200" height="200"><path d="M793.6 988.8c-35.2 0-70.4-12.8-92.8-38.4-38.4-38.4-48-96-28.8-144l-416-416c-48 19.2-105.6 9.6-144-28.8-38.4-38.4-51.2-99.2-28.8-147.2 0-9.6 6.4-12.8 12.8-12.8s12.8 0 19.2 6.4L166.4 256l41.6-41.6-51.2-48c-6.4-6.4-6.4-12.8-6.4-19.2 0-6.4 6.4-12.8 12.8-16 48-22.4 108.8-9.6 147.2 28.8 38.4 38.4 48 96 28.8 144l416 416c48-19.2 105.6-9.6 144 28.8 38.4 38.4 51.2 99.2 28.8 147.2-3.2 6.4-9.6 9.6-16 12.8-6.4 0-12.8 0-19.2-6.4l-48-48-41.6 41.6 48 48c6.4 6.4 6.4 12.8 6.4 19.2 0 6.4-6.4 12.8-12.8 16-16 6.4-35.2 9.6-51.2 9.6zM256 342.4c6.4 0 9.6 3.2 16 6.4l438.4 438.4c6.4 6.4 9.6 16 3.2 25.6-19.2 35.2-12.8 80 16 108.8 19.2 19.2 41.6 28.8 67.2 25.6l-38.4-38.4c-3.2-3.2-6.4-9.6-6.4-16s3.2-9.6 6.4-16l70.4-70.4c9.6-9.6 22.4-9.6 28.8 0l38.4 38.4c0-25.6-9.6-51.2-25.6-67.2-28.8-28.8-73.6-35.2-108.8-16-9.6 3.2-19.2 3.2-25.6-3.2L300.8 323.2c-9.6-6.4-9.6-19.2-6.4-25.6 19.2-35.2 12.8-80-16-108.8-16-19.2-41.6-28.8-64-25.6l38.4 38.4c3.2 3.2 3.2 6.4 3.2 12.8s-3.2 9.6-6.4 16L179.2 300.8c-3.2 3.2-9.6 6.4-12.8 6.4-6.4 0-12.8-3.2-16-6.4L112 262.4c0 25.6 9.6 51.2 25.6 67.2 28.8 28.8 73.6 35.2 108.8 16 3.2-3.2 6.4-3.2 9.6-3.2z m0 0" fill="#3677D1" p-id="66333"></path><path d="M172.8 976c-6.4 0-9.6-3.2-16-6.4l-70.4-70.4c-3.2-3.2-6.4-9.6-6.4-16s3.2-9.6 6.4-16l278.4-278.4c9.6-9.6 22.4-9.6 28.8 0 9.6 9.6 9.6 22.4 0 28.8l-262.4 262.4 38.4 38.4 262.4-262.4c9.6-9.6 22.4-9.6 28.8 0 9.6 9.6 9.6 22.4 0 28.8l-278.4 278.4c3.2 9.6-3.2 12.8-9.6 12.8z m454.4-460.8c-6.4 0-9.6-3.2-16-6.4-9.6-9.6-9.6-22.4 0-28.8l198.4-198.4c6.4-6.4 19.2-9.6 25.6-3.2 0 0 16 9.6 38.4 35.2 12.8 12.8 25.6 32 38.4 54.4-3.2-35.2-9.6-76.8-28.8-112-28.8-57.6-108.8-137.6-140.8-169.6l-51.2 51.2L768 214.4c9.6 9.6 9.6 22.4 0 28.8l-198.4 198.4c-9.6 9.6-22.4 9.6-28.8 0-9.6-9.6-9.6-22.4 0-28.8l182.4-182.4-76.8-76.8c-9.6-9.6-9.6-22.4 0-28.8l80-80c9.6-9.6 19.2-9.6 28.8 0 12.8 0 131.2 108.8 172.8 192 44.8 92.8 32 211.2 32 217.6 0 9.6-9.6 16-16 19.2-9.6 0-19.2-3.2-22.4-12.8-12.8-25.6-48-92.8-70.4-115.2-6.4-6.4-12.8-12.8-19.2-16l-185.6 185.6h-19.2z m0 0" fill="#3677D1" p-id="66334"></path></svg>